<svg xmlns="http://www.w3.org/2000/svg" viewBox="0 0 500 500"><path fill="#000" d="M496.63,225.29c-7.17-1.03-16.4-5.55-20.81-20.89-7.76-27.09-54.41-46.31-54.41-46.31,0,0,9.62,3.41,18.55,1.4,8.92-2.04,12.36.06,12.36.06,0,0,9.05-30.61-32.09-59.16-41.12-28.56-95.48-39.28-121.01-75.28-6.09-8.58-10.8-16.18-14.45-22.78-2.53-4.58-9.23-1.86-8.21,3.33,4.91,24.77,15.46,57.59,38.15,81.39,41.31,43.36,72.93,55.5,72.93,55.5,0,0-16.61,5.36-48.18-9.38-11.05-5.16-19.51-11.4-25.85-17.35-4.11-3.86-10.37.63-8.37,6.03,6.18,16.66,16.59,37.84,33.13,54.1,32.02,31.35,73.7,50.07,73.7,50.07,0,0-80.16,6.01-122.62-59.43-16.41-25.32-29.27-64.08-30.91-88.52-1.29-19.41-6.69-46.99-7.97-38.33-1.28-8.66-7.82,18.92-9.11,38.33-1.64,24.44-12.48,64.54-28.89,89.86-42.45,65.44-123.25,56.74-123.25,56.74,0,0,33.43-16.72,65.44-48.07,14.96-14.68,26.4-33.55,34.34-49.47,2.58-5.18-3.37-10.46-7.77-6.89-5.59,4.53-12.45,9.04-20.78,12.93-31.58,14.74-48.18,9.38-48.18,9.38,0,0,31.62-12.14,72.93-55.5,22.68-23.8,33.24-56.62,38.14-81.39,1.03-5.19-5.67-7.91-8.2-3.33-3.65,6.6-8.36,14.2-14.45,22.78-25.53,36-79.88,46.72-121.01,75.28-41.15,28.55-32.09,59.16-32.09,59.16,0,0,3.44-2.1,12.36-.06,8.92,2.01,18.55-1.4,18.55-1.4,0,0-46.65,19.22-54.41,46.31-4.41,15.34-13.64,19.85-20.81,20.89-3.4.49-4.59,4.94-1.87,7.14,4.76,3.84,12.4,9.47,24.62,17.57-12.22,8.11-19.86,13.73-24.62,17.57-2.73,2.2-1.54,6.65,1.87,7.14,7.17,1.04,16.4,5.55,20.81,20.89,7.76,27.08,54.41,46.31,54.41,46.31,0,0-9.63-3.41-18.55-1.4-8.92,2.03-12.36-.07-12.36-.07,0,0-9.06,30.62,32.09,59.16,41.13,28.56,95.48,39.28,121.01,75.28,6.08,8.58,10.8,16.18,14.45,22.77,2.53,4.58,9.23,1.86,8.2-3.32-4.9-24.77-15.46-57.59-38.14-81.39-41.31-43.36-72.93-55.5-72.93-55.5,0,0,16.61-5.36,48.18,9.38,8.33,3.88,15.19,8.39,20.78,12.92,4.41,3.57,10.36-1.71,7.77-6.89-7.94-15.92-19.38-34.79-34.34-49.48-32.01-31.35-65.44-48.07-65.44-48.07,0,0,80.8-8.69,123.25,56.75,16.41,25.33,27.26,65.42,28.89,89.86,1.29,19.41,7.83,46.99,9.11,38.33,1.28,8.66,6.67-18.92,7.97-38.33,1.64-24.44,14.51-63.2,30.91-88.53,42.45-65.44,122.62-59.42,122.62-59.42,0,0-41.68,18.72-73.7,50.07-16.55,16.25-26.95,37.43-33.13,54.09-2,5.4,4.25,9.89,8.37,6.03,6.34-5.95,14.81-12.2,25.85-17.35,31.58-14.75,48.18-9.38,48.18-9.38,0,0-31.62,12.14-72.93,55.5-22.68,23.8-33.24,56.63-38.15,81.39-1.03,5.19,5.67,7.9,8.21,3.33,3.65-6.6,8.36-14.2,14.45-22.78,25.53-36,79.88-46.72,121.01-75.28,41.15-28.55,32.09-59.16,32.09-59.16,0,0-3.44,2.1-12.36.07-8.92-2.01-18.55,1.4-18.55,1.4,0,0,46.65-19.23,54.41-46.31,4.41-15.34,13.64-19.86,20.81-20.89,3.4-.49,4.59-4.94,1.87-7.14-4.77-3.84-12.4-9.47-24.62-17.57,12.22-8.1,19.86-13.73,24.62-17.57,2.72-2.2,1.53-6.65-1.87-7.14ZM300.84,262.59c-33.99,33.26-46.35,84.15-50.85,118.92-4.49-34.77-16.86-85.66-50.85-118.92-4.87-4.76-9.96-8.92-15.22-12.59,5.26-3.66,10.36-7.82,15.22-12.58,33.99-33.26,46.36-84.15,50.85-118.92,4.49,34.77,16.86,85.66,50.85,118.92,4.87,4.76,9.96,8.92,15.22,12.58-5.26,3.67-10.36,7.82-15.22,12.59Z"/></svg>
