<?xml version="1.0" encoding="UTF-8"?>
<svg id="_행동양상" data-name="행동양상" xmlns="http://www.w3.org/2000/svg" version="1.1" viewBox="0 0 500 500">
  <!-- Generator: Adobe Illustrator 29.8.7, SVG Export Plug-In . SVG Version: 2.1.1 Build 1)  -->
  <defs>
    <style>
      .st0 {
        fill: #fff;
      }
    </style>
  </defs>
  <path d="M285.36,448.09c-1.29.29-1.5-.2-2.29-.89-2.79-2.44-6.59-9.05-9.57-12.29-12.21-13.28-43.37-26.33-41.9-46.45s41-35.11,55.89-47.08c24.5-19.69,6.34-36.13-13.12-48.5-28.59-18.17-95.03-41.34-102.43-76.98-3.26-15.7,3.2-30.8,16.89-39.21-7.79,32.94,25.7,55.23,49.82,69.95,23.97,14.63,80.79,39.55,94.26,62.39,22.36,37.9-37.51,56.49-57.99,73.51-11.75,9.77-11.77,20.4-.95,30.97,2.42,2.37,6.7,4.1,7.82,7.2l1.28.04c37.13-34.94,81.88-66.14,94.23-118.89,12.42-53.04-18.07-112.13-63.76-139.21-6.31-3.74-13.19-6.18-19.71-9.42-1.17-.58-2.4-.77-.7-2.05,48.14,6.79,86.5,41.25,103.38,86.05,26.53,70.42-11.55,131.01-67.13,171.53-11.61,8.47-31.69,18.31-39.66,29.56-1.98,2.79-4.08,6.33-4.35,9.77Z"/>
  <path d="M249.84,346.09c-1.53-8.98-7.29-17.12-14.65-22.23-1.05-.73-8.86-4.09-8.11-5.08,12.34-3.53,18.59-13.97,24.13-24.58,5.06,11.35,11.22,20.3,23.22,25.02-8.02,4.69-15.05,8.37-19.29,17.14-1.46,3.01-2.24,9.02-4.43,11.06-2.47,2.29-11.46,5.46-15.15,7.62-10.62,6.24-26.7,16.6-28.46,29.83-2.89,21.8,15.74,31.24,30.87,41.82-3.63,3.93-7.77,7.43-11.38,11.37-1.4,1.53-7.74,11.35-9.54,10.03-1.74-6.61-5.91-11.55-10.93-15.95-11.78-10.32-29.27-18.59-42.32-28.72-47.39-36.75-80.65-92.22-63.79-153.88,13.58-49.65,57.89-91.04,109.27-98.38,1.71,1.28.48,1.47-.69,2.05-3.31,1.65-7.62,2.78-11,4.47-61.59,30.86-103.08,116.39-60.71,178.38,18.84-28.05,49.13-46.06,77.71-63.09,1.22-.84,1.93-.31,3.06.01,1.78.5,19.79,10.59,20.33,11.63-23.67,13.87-66.09,41.32-70.63,70.53-2.03,13.07,2,22.65,9.63,32.83l1.79-.54c1.51-17.27,14.45-29.49,29.83-35.67,4.52-1.82,17.22-5.68,21.64-5.68h19.58Z"/>
  <path d="M102.3,356.1c-11.76-4.89-24.37-7.87-35.54-14.09-15.21-8.47-28.55-22.1-32.35-39.6-1.5-6.89-2.6-24.33,6.62-26.28,9.75-2.07,10.84,16.37,12.74,22.41,4.38,13.94,13.46,29.28,25.75,37.54-3.91-8.59-9.05-16.69-12.09-25.7-7.01-20.75-7.12-44.21-2.03-65.39,3.86-16.06,15.7-36.04,13.16-52.3-1.95-12.53-18.32-15.88-23.99-4.06l-2.81,6.27c-1.45-1.57-2.81-3.85-3.14-5.97-4.06-25.99,28.56-38.03,45.52-20.02,2.58,2.74,3.55,6.34,6.32,8.69,4.11-8.2,13.78-12.19,20.53-18.19,7.99-7.11,18.92-20.86,9.55-31.2-8-8.82-20.89,3.46-8.24,6.62-4.73,16.68-23.14,6.31-22.67-8.55.93-29.51,48.12-30.18,53.26,3,4.65,29.99-18.88,39.91-34.67,58.32-15.14,17.66-29.22,42.76-34.79,65.39-9.02,36.68-1.59,71.84,18.86,103.1Z"/>
  <path d="M383.84,134.9c.53-.73,3.3.1,4.07-2.78,2.4-9.02-10.47-10.17-15.02-.41-8.52,18.28,16.88,34.35,26.77,45.89,7.84-20.4,39.03-24.13,48.88-3.35,2.25,4.75,4.4,18.22-1.54,20.65-2.03.83-1.99-8.35-4.51-9.13-7.5-9.01-20.31-3.58-22.13,7.08-2.53,14.82,8.94,34.05,12.79,48.7,6.37,24.24,6.33,49.67-2.97,73.14l-10.94,22.29c12.05-8.87,21.23-22.31,25.75-36.62,1.92-6.08,3-18.81,7.47-22.59,9.22-7.79,14.01,7.41,14.19,14.13.64,23.32-20.02,44.06-39.81,53.15-6.16,2.83-22.1,9.53-28.12,11.04-.5.12-1.48.26-1.34-.43,30.86-46.53,28.16-99.46-.54-146.1-9.12-14.83-18.94-24.03-29.5-36.99-14.43-17.7-24.56-45.36-3.19-62.34,24.2-19.23,53.45,9.83,36.89,28.69-8.29,9.44-20.74.85-17.21-4.02Z"/>
  <path d="M164.23,418.96l-.46,1.82c-17.53-3.83-32.26-9.09-46.82-19.67-10.91-7.93-23.5-23.15-38.83-18.64s-11.3,25.47,4.13,18.26c3.12,9.21-6.83,15.91-15.16,16.32-29.19,1.44-37.36-47.31-4.84-58.65,42.44-14.8,69.33,45.13,101.98,60.56Z"/>
  <path d="M417.43,400.73c17.94,7.69,18.7-17.39,1.25-19.03-16.98-1.61-34.17,20.64-48.9,28.32-9.91,5.17-22.47,8.47-33.42,10.74,6.8-6.96,15.47-12.12,22.78-18.65,21.77-19.44,46.35-57.89,81.03-42.81,21.32,9.27,26.02,40.17,6.33,53.66-11.09,7.59-31.36,3.85-29.08-12.23Z"/>
  <path d="M205.21,456.28c-14.03-6.67-40.52-15.76-51.9-.44-4.08,5.49-1.5,15.32-10.53,16.79-19.7,3.2-23.68-22.06-11.83-33.68l12.32-8.15c-8.47-.65-16.66.43-22.8,6.78-3.91,4.04-4.66,10.84-11.34,11.46-13.53,1.25-14.17-15.73-6.41-23.75,15.7-16.24,40.81-3.55,58.08,2.09,4.72,1.54,9.79,2.07,14.55,3.67,11.72,3.93,26.02,13.05,29.86,25.23Z"/>
  <path d="M357.31,431.69c12.86,3.91,22.22,16.22,18.69,30.09-2.19,8.6-14.1,14.63-21.75,8.95-4.73-3.52-2.89-9.83-5.64-14.4-3.62-6.01-15.19-9.23-21.82-9.23-11.13,0-20.39,5.92-30.51,9.19,5.57-14.32,20.43-22.96,34.6-26.87,3.62-1,7.64-.87,10.95-1.8,17.05-4.76,42.22-20.56,57.59-1.16,11.82,14.92-5.13,30.02-13.9,19.37-5.27-6.4-5.03-10.7-14.85-14.3-3.57-1.31-10.92-3.48-13.37.16Z"/>
  <path d="M259.86,248.62c-.52-2.08.39-1.49,1.14-2.07,3.01-2.34,7.49-4.22,10.81-6.45,21.23-14.22,46.57-33.24,39.96-62.5,8.92,3.43,16.34,15.78,17.29,25.05,3.08,30-23.21,45.01-45.24,58.59l-23.97-12.62Z"/>
  <path d="M252.56,430.79c6.85,12.63,13.5,28.17,29.17,31.43-2.69,7.34-9.71,10.72-17.32,9.56,3.8,10.88-9.54,18.37-11.85,28.22l-12.94-19.38-.71-8.86c-7.81.95-14.31-2.16-17.32-9.55,15.54-2.7,22.47-18.44,29.09-30.87l1.87-.55Z"/>
  <path d="M252.56,153.01c.53.5,2.71,8.03,3.49,9.72,3.42,7.36,6.09,12.3,12.48,17.57,1.52,1.26,8.95,4.7,7.72,6.38-14.94,4.16-18.12,16.6-23.59,28.79-1.95,4.34-3.48-4.48-4.48-6.63-5.48-11.8-8.82-15.48-19.95-21.95-.76-.44-1.51.26-1.15-1.55,14.99-6.87,17.58-17.71,23.59-31.07.37-.82.34-2.73,1.89-1.27Z"/>
  <path d="M345.46,284.15l-1.81-.59c-1.78-7.67-8.07-13.29-14.56-17.16,8.33-4.12,11.63-10.95,15.92-18.65,3.53,8.15,7.36,13.91,15.01,18.65-6.58,4.61-12.44,9.6-14.57,17.76Z"/>
  <path d="M139.65,265.95c8.33-2.98,12.62-10.63,15.93-18.22,3.64,7.9,6.98,14.42,15.01,18.67-7.63,4.35-11.14,10.13-15.01,17.74-2.96-3.57-3.99-8.48-7.25-11.85-2.59-2.68-6.43-3.49-8.68-6.33Z"/>
  <circle cx="42.87" cy="258.13" r="9.55"/>
  <circle cx="456.76" cy="258.07" r="9.54"/>
  <g>
    <path d="M253.48,0l18.96,47.09c-6.05,9.3-15.47,10.86-11.41,24.16,4.79,15.72,20.96,22.65,31.62,7.54,3.76-5.34.31-5.53-.06-10.02-.89-10.95,14.73-13.82,15.6-1.81.52,7.22-5.15,7.88-5.53,9.28-3.2,11.69,10.79,23.6,21.43,14.85,6.84-5.62,2.39-9.31,3.56-13.71,2.07-7.78,24.56-16.71,32.4-16.35l-12.57,18.84c-7.27,13.98-13.45,28.72-17.49,44-49.17-18.04-105.75-18.55-154.81,0-4.16-16.78-10.96-32.73-18.98-47.97l-9.26-14.87c9.3,1.34,21.6,5.35,28.26,12.26,4.32,4.48,1.56,5.27,1.7,10.05.25,8.43,10.8,12.71,18.07,9.78,4.21-1.7,9.29-11.95,8.3-16-.6-2.47-6.73-2.7-6.2-10.07.56-7.88,10.63-11.07,14.32-3.55s-4.78,10.15,3.41,18.45c10.97,11.12,24.2,3.14,28.71-9.52,4.5-12.63-3.37-16.85-11.61-24.61L251.45,1.16l2.02-1.16ZM253.47,83.8c-1.58-1.09-7.18,7.06-8.02,8.8l6.69,9.41,6.67-8.79-5.33-9.41Z"/>
    <path d="M323.55,142.92c-15.96-2.74-31.56-8.05-47.86-9.84-31.83-3.48-63.1.97-93.58,9.98l-4.2-12.42c.06-2.73,10.32-5.32,12.95-6.11,35.03-10.52,78.31-10.44,113.8-2.21,3.72.86,19.55,4.86,21.7,6.55,2.53,1.99-3.14,10.89-2.81,14.05Z"/>
    <path class="st0" d="M253.47,83.8l5.33,9.41-6.67,8.79-6.69-9.41c.84-1.74,6.44-9.88,8.02-8.8Z"/>
  </g>
</svg>