<?xml version="1.0" encoding="UTF-8"?>
<svg id="_잠재심리" xmlns="http://www.w3.org/2000/svg" version="1.1" viewBox="0 0 431.19 500">
  <!-- Generator: Adobe Illustrator 30.5.1, SVG Export Plug-In . SVG Version: 2.1.4 Build 3)  -->
  <path d="M428.76,190.88c-6.09-16.3-21.78-26.51-39.18-26.3-14.69.17-28.56,8.73-32.73,23.72l-9.9-20.34c-5.8-11.93-11.18-28.67-7.86-41.18,1.74-6.55,6.09-12.16,12.57-14.19,4.08-1.28,8.34-.38,11.48,2.16,2.85,2.3,4.84,5.98,4.29,9.95-.37,2.7-2.18,4.61-3.73,5.51-2.69,1.57-5.07-.01-7.53-1.06-3.1,2.65-3.61,9.11-.85,12.32,4.7,5.46,12.25,6.2,18.67,3.94,7.88-2.78,12.98-9.09,14.06-17.52,1.29-10.1-3.3-19.97-11.92-25.91-10.04-6.93-22.59-8.2-34.71-3.3-9.56,3.87-17.71,12.94-20.97,24.11-3.12,10.69-2.03,21.5,2.01,32.06-6.41-4.91-12.05-8.38-19-10.88l-12.02-4.32c-3.9-1.4-7.19-3.78-10.32-7l11.07-2.19,3.85-14.95c-21.95-9.32-46.46-12.51-70-13.56l-22.81.18c-23.58.94-46.44,4.71-68.54,13.48l3.15,12.34c.35,1.39,1.11,2.45,2.49,2.78l9.29,2.21c-4.99,4.77-10.77,7.45-16.93,9.73-8.54,3.16-16.33,6.7-24.02,12.62,1.88-6.49,3.65-12.58,3.74-19.41.17-12.69-4.37-24.85-13.76-33.18-13.27-11.78-32.71-12.1-45.96-.49-9.25,8.11-12.48,21.09-6.81,32.27,4.43,8.72,15.2,12.98,24.2,9.74,4.5-1.62,7.33-5.18,7.91-9.68.26-1.98-.82-6.43-3.12-5.99-2.67.51-4.64,2.36-7.27.73-1.99-1.23-3.29-2.86-3.55-5.62-.38-4.01.64-7.25,3.8-9.89,4.67-3.9,11.25-3.84,16.43-.24,11.38,7.9,10.07,26.93,5.58,39.93-4.01,11.61-9.36,22.08-15.31,33.58-4.17-14.29-15.83-22.61-30.14-23.23-19.94-.86-37.87,11.25-43.16,30.73-1.78,6.54-1.73,13.19.26,19.68,3.47,11.3,15.27,18.27,26.51,14.74,9.9-3.12,11.87-14.35,9.26-15.82-1.06-.6-7.46.31-9.99-4.13-1.64-2.86-1.63-6.48.27-9.15,4.27-5.98,12.46-6.55,18.1-1.66,8.39,7.28,7.68,20.13,4.81,31.03-6.53,24.77-4.91,48.52,10.11,69.74,7.06,9.98,15.7,18.49,25.9,25.22,2.39,1.58,4.47,3.18,7.92,3.54l-13.52-20.62c-9.42-17.26-13.68-36.27-12.01-56.07.96-11.41,3.43-22.26,8.07-32.71,5.08-11.43,11.56-21.97,19.76-31.3,10.08-11.46,22.6-18.91,36.52-24.65l16.09-6.63c11.94-6.17,22.07-16.57,22.45-30.32l22.91-2.85c5.54-.69,10.31-2.91,14.47-6.51l6.24-5.4,7.46,6.19c3.79,3.14,8.09,5.11,13,5.69l22.93,2.7c1.29,18.73,17.04,29.52,33.9,35.28,6.98,2.38,13.43,4.96,19.81,8.77,17.18,10.25,30.52,25.39,38.98,43.52,3.67,7.86,6.81,15.46,8.62,23.96,7.3,34.17-1.36,62.27-22.16,89.53-.48.63-.5,1.21.3,1.61,12.29-7.41,23.49-16.5,31.68-28.29,9.21-13.25,14.4-28.34,14.49-44.46.11-20.4-10.8-38.53-2.61-51.94,3.11-5.09,8.5-8.41,14.42-7.77,3.47.38,6.28,2.48,7.63,5.02,1.52,2.85,1.88,6.27-.07,9.03-2.07,2.92-6.09,4.01-9.56,3.55-2.49-.33-1.25,7.66,2.51,11.64,3.52,3.73,8.71,6.12,14,5.61,6.18-.6,12.19-4.13,15.56-9.39,5.81-9.06,6.2-20.05,2.46-30.06Z"/>
  <path d="M137.4,373.41c-12.22-10.49-25.27-19.07-39.27-27.02l-26.15-16.36c-26-18.74-49.44-47.59-40.07-81.88-6.17,3.77-9.76,9.45-12.82,15.34-10,19.25-7.02,41.91,7.06,58.28,6.23,7.24,13.05,13.21,21.11,18.46l24.87,13.79-16.04.16c-16.92-.15-31.02-6.12-41.69-20.43.03,19.1,13.22,35.26,31,40.92,6.73,2.14,13.51,2.99,20.57,3.17,5.11.13,9.98-.49,15.11,1.29-9.59,2.46-17.51,7.2-22.63,15.05-7.05,10.82-5.57,27.27,5.74,33.83,8.04,4.66,18.13,4.59,25.45-1.69-7.68-.61-12.67-5.71-13.15-12.99-.44-6.59,3.38-12.45,8.93-16,14.8-9.47,37.39-6.9,49.19,6.14,3.4,3.76,5.43,8.39,4.7,13.39-.85,5.87-6.84,10.02-12.3,7.74-3.22-1.34-4.65-4.49-5.81-7.69-6.61,4.93-6.55,15.47-.79,21.88,4.94,5.49,12.27,8.06,19.78,6.88,9.82-1.55,17.72-8.68,20.71-18.2,3.43-10.92,1.61-22.18-4.32-31.92-5.17-8.5-11.6-15.64-19.17-22.14Z"/>
  <path d="M415.55,302.75c3.23-9.67,2.82-19.91.36-29.61-3.63-9.39-7.74-18.34-16.44-25.05,4.61,18.09,1.28,35.95-9.12,50.9-6.34,9.12-13.45,16.88-21.93,24.09-9.7,8.25-20.28,14.52-31.13,21.2l-28.46,17.52c-15.49,10.81-32.08,25.74-38.38,43.63-4.14,11.75-1.93,24.65,6.97,33.36,7.14,6.99,17.76,9.14,26.7,5.13,8.63-3.87,12.9-12.83,10.38-21.72-.58-2.06-1.62-3.75-3.7-5.01l-3.48,5.36c-2.81,3.24-7.32,3.8-10.93,1.32-4.71-3.23-5.89-9.33-3.42-14.6,8.3-17.64,35.46-22.67,52.85-12.18,6.94,4.19,10.8,12.37,8.41,19.85-1.73,5.41-6.03,8.67-11.44,9.12,3.09,4.06,7.14,4.93,11.3,5.2,9.69.5,18.16-4.68,21.53-13.77,3.95-10.65.71-22.01-7.75-29.6-4.91-4.4-10.75-6.74-17.1-8.54,5.42-1.92,10.32-1.63,15.55-1.7,21.39-.27,40.12-9.42,47.79-29.89,1.72-4.61,3.35-8.86,2.97-14.19-9.47,14.31-26.2,21.01-42.65,20.53l-15.2.36c1.67-1.84,3.97-2.43,6.25-3.58,21.49-10.87,42.18-24.45,50.1-48.15Z"/>
  <path d="M208.77,170.52l7.02,14.5,7.25-14.92c4.03-6.27,9.93-10.6,17.11-13.44l-6.69-3.79c-5.68-3.21-9.97-7.61-12.79-13.47l-5.01-10.43-3.47,7.66c-2.57,5.67-5.9,11.13-11.35,14.21l-9.94,5.61c7.31,3.1,13.6,7.5,17.86,14.08Z"/>
  <path d="M124.37,87.34l8.79,22.08c28.81-10.67,57.92-15.02,88.49-14.29,26.59.63,51.71,4.9,76.6,14.39,5.56-16.47,11.9-31.6,20.72-45.91,5.09-8.26,10.93-15.12,18.67-21.45-15.94-1.65-35.76,8.76-39.61,23.76l-5.21,1.64c-3.24,1.02-4.36,3.78-3.74,6.97.53,2.72-1.33,5.38-3.52,6.75-4.62,2.9-9.98,2.64-13.94-.67-3.7-3.1-5.44-8.43-3.53-13.05,3.06-1.86,4.55-4.79,4.18-7.96-.33-2.97-1.94-5.85-5.14-6.71-3.43-.92-6.51.97-8.19,3.35-2.11,2.98-1.9,6.17-.51,9.51,1.63,3.9-7.64,12.44-17.1,11.55-9.51-.89-17.84-9.48-17.23-19.21.5-8.05,7.96-12.87,15-14.44,2.23-2.61.51-7.11-1.92-9.08-2.78-2.26-5.82-2.6-9.82-2.09,2.98-11.48-5.3-22.28-11.57-32.45l-5.72,9.34c-4.66,7.62-8.46,13.81-6.29,23.3-6.37-1.35-11.98,1.87-12.64,7.76-.13,1.19-.03,2.32.58,3.13,1.2,1.6,9.85,1.21,13.68,9.29,2.37,5.01,1.71,10-.77,14.49-4.29,7.77-13.14,11.86-21.58,9.19-5.16-1.63-9.35-5.02-10.51-10.22,2.06-3.08,2.09-6.66.41-9.73-1.51-2.45-4.58-4.48-7.94-3.82-3.63.71-5.67,3.98-5.91,7.2-.29,3.49,1.68,6.39,4.8,8.25,1.18,4.62-.75,9.22-3.94,11.92-3.53,3-8.14,3.82-12.3,2.09-8.71-3.61-3.74-10.07-6.29-13.22-1.9-2.35-4.99-1.55-7.59-2.66-2.07-6.73-6.38-11.85-12.17-15.79-8.31-5.65-17.9-9.31-28.21-8.06,13.12,10.08,25.19,30.41,30.96,44.89Z"/>
  <path d="M237.06,413.9c2.74-6.84,7.16-12.5,12.22-17.99,8.66-9.38,18.1-17.31,27.82-25.69,21.81-18.8,39.19-34.36,54.87-59.16,11.79-18.65,17.88-41.37,15.65-63.48-2.28-22.53-11.84-43.7-29.33-58.55-19.21-16.31-46.85-20.38-69.85-9.75-10.21,4.72-18.13,13.05-24.32,22.06-3.88,5.65-5.94,11.79-8.41,17.87-5.67-17.26-16.77-32.21-32.76-40.21-7.49-3.74-15.44-5.11-23.85-5.5-44.45-2.05-74.02,37.71-75.84,79.87-1.38,32.14,13.64,59.21,34.55,82.68,9.7,10.89,20.25,20.27,31.19,29.87l20.16,17.7c7.62,6.69,14.54,13.75,20.44,21.95,3.63,5.04,6.04,10.51,6.65,16.66-1.15,13.18-14.75,21.07-27.48,24.46,8.66,10.88,23.36,12.39,34.98,3.45-5.14,9.46-6.33,18.72-1.06,27.45l8.52,14.06,4.38,8.34,11.5-19.73c6.03-10.34,7.83-18.85.93-29.71l8.99,4.32c9.35,2.98,19.41-.21,25.33-8.27-15.98-4.68-31.72-15.94-25.26-32.71ZM215.77,407.38c-3.12-9.17-12.99-23.63-19.01-29.85l-14.63-15.11-31.64-31.15c-13.07-12.87-26.64-33.84-31.35-51.91-4.14-15.87-3.94-32.48,2.63-47.59,4.13-9.5,10.27-17.77,18.47-23.88,18.55-13.83,43.95-13.11,61.48,1.7,5.55,4.69,9.99,9.63,14.24,15.63,3.98-5.94,7.88-10.55,12.92-14.91,16.95-14.66,41.17-16.59,59.91-3.82,27.98,19.07,32.48,57.72,18.15,87.62-11.62,24.23-31.73,43.56-51.04,61.89-15.86,15.05-32.44,30.81-40.12,51.38Z"/>
  <path d="M278.09,287.48c4.03-6.69,6.16-13.99,6.68-21.84,1.21-18.4-10.35-35.31-28.4-39.67-9.71-2.34-20.14-.35-28.53,4.74-5.17,3.14-8.58,7.76-12.12,12.38-10.94-17.19-30.25-22.42-47.57-14.52-9.06,4.13-16.96,12.87-20.07,23.8-3.85,13.52-.62,27.45,7.48,38.9,6.23,8.81,13.21,16.36,21.11,23.71l16.9,15.71c8.91,8.28,16.04,17.65,22.39,28.46,5.18-9.45,10.5-17.55,17.93-24.56l24.39-23.01c7.83-7.39,14.39-15.09,19.81-24.09ZM219.42,310.24l-3.73,8.57c-6.58-18.64-12.76-28.19-32.5-34.25,13.09-3.91,24.19-11.09,29.25-24.36l3.36-8.82c6.38,18.23,13.51,27.71,32.84,33.35-14.16,3.66-24.31,12.48-29.22,25.51Z"/>
</svg>