<?xml version="1.0" encoding="UTF-8"?>
<svg id="_기반" xmlns="http://www.w3.org/2000/svg" version="1.1" viewBox="0 0 420.56 499.18">
  <!-- Generator: Adobe Illustrator 30.5.1, SVG Export Plug-In . SVG Version: 2.1.4 Build 3)  -->
  <defs>
    <style>
      .st0 {
        fill: #fefefd;
      }

      .st1 {
        fill: #000101;
      }
    </style>
  </defs>
  <path d="M417.32,343.22c-8.6-12.22-25.23-11.12-37.17-3.27l-15.88,10.44,8.39-21.84c7.1-23.54,7.86-47.98,1.83-71.95-5.77-22.96-16.54-44.03-31.46-62.34-10.52-12.91-22.88-23.38-37.34-31.54-13.8-7.79-36.52-14.9-52.2-11.02,14.73,5.11,27.85,10.24,39.69,19.07,42.21,28.11,65.24,78.93,58.59,129.14-3.56,26.85-15.18,55.36-33.19,75.79-22.96,26.04-57.54,44.39-92.94,48.39,3.99,4.96,8.39,10.61,14.46,12.77,4.1,1.46,9.14-.61,13.33-1.5,20.81-4.44,39.75-13.88,56.7-26.49l15.53-12.9c7.38-6.88,14.09-13.88,20.38-21.8l8.83-11.11c1.63,2.76.68,5.32,1.04,8.44,2.83-1.07,4.15-2.37,6-3.72,9.35-6.8,20.74-14.81,31.94-12.3,4.42.99,7.11,4.51,7.34,8.77.13,2.5,2.01,3.79,4.19,4.27,4.63,1.02,9.01-.36,11.84-4.37,4.34-6.15,4.5-14.65.09-20.93Z"/>
  <path d="M24.76,356c10.16-3.86,22.29,3.3,31.22,9.76l8.53,6.16.35-6.73c.03-.48.59-1.01.86-.97.27.04.81.34,1.13.76,13.65,18.49,29.81,34.59,48.82,47.7,16.39,11.31,34.51,19.25,54.04,23.17,3.95.79,8.32,2.06,12.11,1.17,5.13-3.48,9.17-8.13,13.23-12.92-27.86-3.89-49.64-12.52-71.94-28.82-15.01-10.97-26.93-24.44-36.15-40.56-7.43-12.99-12.91-26.18-16.42-40.82-7.14-29.75-4.23-60.92,9.02-88.5,17.55-36.56,48.14-61.35,86.71-73.71-7.69-2.24-14.21-.72-21.21-.19-18.11,3.62-34.63,11.47-48.75,23.4-9.95,8.4-18.86,17.37-26.32,28.11-8.92,12.83-15.72,26.61-20.8,41.37-12.03,34.94-9.54,72.5,6.99,106l-15.11-10.3c-6.03-3.42-12.38-5.94-19.47-6.02-6.52-.07-12.81,2.47-17.04,7.33-4.52,5.21-5.6,12.3-3.57,18.75,1.8,5.68,7.3,9.62,13.06,8.65,3.27-.55,5.51-2.66,5.44-5.85-.08-3.42,2.15-5.78,5.27-6.97Z"/>
  <path d="M18.84,195.19c11.28,8.25,8.69,23.08,3.92,35.57l-4.34,11.34c-5.41,14.15-8.32,28.78-7.16,43.96,1.21,15.91,7.75,31.91,20.86,41.52.77-.39.87-1.59.59-2.38-4.42-12.24-6.07-24.71-5.58-37.81,1.22-32.66,18.44-70.66,39.44-94.95l17-19.66c13.02-15.06,20.66-35.46,10.78-53.59-6.72-12.33-20.93-18.21-34.07-13.69-12.27,4.22-19.12,17.22-14.4,29.28,2.43,6.21,10.02,8.85,15.23,5.15,5.49-3.9,2.01-8.25,2.43-9.71.25-.87,1.02-1.66,2.11-2.03,4.01-1.35,7.93.53,9.94,4.17,5.34,9.62,1.16,21.11-5.19,30.49-2.66-6.66-11.78-10.17-18.74-9.02,5.76,5.1,7.95,11.03,7.35,18.13-.49,5.89-1.67,12.05-4.77,17.09l-7.2,11.73c-.46-4.36-1.53-7.4-3.55-10.84-6.5-11.07-20.7-15.23-31.9-8.61-4.9,2.9-8.85,7.93-8.61,13.65,6.03-2.59,11.11-2.65,15.83.23Z"/>
  <path d="M340.09,177.21c9.22,10.83,18.24,21.29,26.18,33.2,9.52,14.26,16.53,29.65,21.73,45.97,6.13,19.23,6.76,42.59,1.81,62.12-.77,3.05-2.53,5.7-2.16,9.33,18.55-14.05,24.11-40.24,20.6-62.15-1.75-10.94-5.45-20.88-9.44-31.1l-3.75-9.63c-3.96-10.17-3.71-26.2,6.97-30.78,5.14-2.2,9.73-1.43,14.62.76.12-5.66-3.07-10.46-7.84-13.51-9.25-5.92-21.17-4.1-28.66,3.53-4.19,4.27-6.42,9.33-7.58,15.61l-5.75-9.03c-6.58-10.34-10.69-29.65,1.2-37.4-6.19-2.32-15.8,2.15-18.54,8.64-5.64-8.33-9.62-19.19-5.78-28.62,1.34-3.28,3.78-6.02,7.22-6.65,1.51-.28,3.15.05,4.13.94.65.6,1.62,1.84,1.1,3.13-1.24,3.06-.63,6.47,2.25,8.44,4.54,3.1,10.38,1.83,13.84-2.4,1.82-2.23,2.94-4.85,3.3-7.82,1.42-11.59-5.92-21.74-17.22-24.87-9.61-2.66-19.85.16-26.89,7.52-11.8,12.31-11.59,31.87-3.94,46.73,3.48,6.75,7.7,12.29,12.6,18.04Z"/>
  <path d="M389.62,385.26c-12.29-9.95-32.1-4.39-42.54,5.48l-16.27,15.39c-8.34,7.89-16.5,15.34-26.2,21.57-11.29,7.24-23.17,12.7-35.94,16.73l-12.47,3.04c7.18,4.95,15.51,5.93,23.78,4.54,6.68-1.12,13.03.31,18.98,3.45,14.32,7.55,31.45,6.17,44.52-3.33,4.19-3.05,8.23-5.99,10.84-10.62-4.92.54-8.82,1.6-13.09.26l-12.66-3.97c12.32-8.26,18.25-23.6,29.37-30.61,4.75-2.99,10.79-4.08,15.66-1.54,3.3,1.72,4.93,5.2,4.43,8.46-.49,3.19-2.76,5.61-6.42,6.4,2.51,4.65,7.17,6.37,12.19,5.65,6.5-.93,11.63-5.65,14.06-11.96,3.97-10.33.49-21.87-8.25-28.95Z"/>
  <path d="M85.07,401.67c-11.14-11.37-25.22-23.92-41.58-21.34-8.39,1.33-15.49,6.12-19.05,12.7-4.3,7.95-4.45,16.98-.24,24.34,3.04,5.3,8.03,8.72,13.98,8.94,4.6.17,8.74-1.46,11.1-5.87-3.09-.75-5.52-2.02-6.54-4.11-1.37-2.81-.91-5.65.98-8.01,6.18-7.72,19.48-2.72,25.24,4.42l7.2,8.93c4.86,6.02,9.6,11.77,16.11,16.21l-12.71,4.08c-4.49,1.44-8.86.41-13.71-.16,3.72,5.56,8.78,8.55,13.87,11.82,12.75,8.19,28.29,9.08,41.61,1.84,6.82-3.71,13.8-4.51,21.4-3.33,7.25,1.12,15.07-.09,21.27-4.99-10.83-2.09-20.28-4.7-29.76-9.16-22.04-10.38-32.52-19.33-49.18-36.32Z"/>
  <path d="M304.16,377.57l-5.51-5.1c-1.86-1.72-4.05-2.34-6.71-1.95-19.65,3.25-38.62,8.5-56.85,16.47-8.91,3.9-17.06,7.93-25.08,13.44-7.07-5.03-14.05-8.55-21.77-12.05-20.01-9.06-40.82-15.22-62.76-17.85-3.63,1.85-6.5,4.3-9.03,7.14,26.91,22.63,60.86,35.88,95.62,37.41,32.99-2.6,66.86-16.1,92.09-37.52Z"/>
  <path d="M210.98,391.28c22.89-15.51,47.46-24.21,74.95-29.2l-11.67-18.48c-.86-1-1.9-1.56-3.32-1.29-22.44,3.52-45.37,15.17-60.74,31.39-16.87-17.37-39.03-28.29-62.4-31.51-1.94,1.32-2.74,3.1-3.83,4.85l-9.16,14.65c1.05.92,2.02,1.21,3.33,1.44,24.51,4.21,47.53,13.02,68.5,26.31,1.44.92,2.65,1.57,4.34,1.85Z"/>
  <path d="M220.01,439.45l-9.65-14.89-10.58,15.51c-8.79,10.48-20.52,17.83-34.06,20.35,7.69,10.6,21.27,12.82,32.16,6.36-2.91,6.43-2.89,12.24.77,17.37l7.06,9.01,4.52,6.03,11.36-15.35c2.02-2.73,3.23-5.96,3.09-9.11l-2.42-7.65c6.78,4.12,13.57,4.45,20.33,1.96,4.61-1.7,8.85-3.83,11.62-8.58-14-2.61-25.53-10.24-34.2-21Z"/>
  <path d="M308.16,338.3l5.97-12.74c3.61-5.84,8.76-9.77,15.5-12.84-6.93-2.97-12.62-6.94-16.28-13.27l-5.19-12.59-5.81,13.63c-3.54,5.98-9.09,9.47-15.77,12.32,8.68,3.26,14.38,8.89,17.79,16.76l3.78,8.73Z"/>
  <path d="M107.85,328.87l3.96,9.84,3.65-9.11c3.26-8.14,9.73-13.53,18.23-16.99-9.47-3.38-16.1-9.33-19.09-18.22-.86-2.57-1.39-5-2.94-7.54l-3.23,8.5c-3.48,9.16-8.94,13.19-17.95,17.64,8.03,3.32,14.31,8.2,17.38,15.86Z"/>
  <path class="st1" d="M309.06,214.46l-4.03,8.7c-1.99,4.3-5.69,6.82-10.27,9.25,5.81,2.8,9.44,6.42,11.61,11.86.69,1.73.91,3.79,2.68,5.23,3.14-8.89,5.5-13.07,13.77-17.23-8.15-4.57-10.47-9-13.76-17.8Z"/>
  <path class="st1" d="M110.97,249.45l3.62-7.37c2.02-4.46,5.57-7.29,10.28-9.56-2.75-1.99-5.21-2.99-7.17-5.15-3.28-3.6-4.59-7.89-6.6-12.69l-2.79,6.67c-2.13,5.1-6.02,8.31-11.18,10.85,8.69,4.62,10.59,8.85,13.84,17.24Z"/>
  <path d="M264.84,192.89c-8.93.67-17.48-1.03-25.39-5.02-6.59-4.1-12.33-9.01-17.2-15.04-5.14-6.37-8.33-13.43-12.25-20.97-6.41,14.89-16.49,29.69-30.19,36.56-7.6,3.81-15.85,4.71-24.28,4.6-.66.21-.64,2.03-.52,2.73,4.7,27.58-7.98,52.34-32.27,66.62,6.2,4.38,11.48,8.42,16.32,13.62,13.67,14.71,19.88,34.33,15.84,54.18-.15.74-.05,1.79.19,2.24.24.43,1.18.63,1.93.71,22.54,2.48,38.09,13.77,53.49,30.37,6.2-7.85,12.64-13.46,20.28-18.53,10.04-7.28,21.69-11.13,34.18-11.76.51-.95.45-2.29.23-3.38-5.54-27.89,8.22-52.23,32.35-67.6-22.86-13.81-36.52-36.08-33.03-62.89.28-2.16.83-4.09.33-6.44ZM276.68,262.19l-9.29,6.68c-10.88,7.83-22.25,21.14-23.55,34.65-.16,1.68-.84,2.82-2.64,3.05-2.61.41-5.09.65-7.9,1.83-9.68,10.07-17.2,21.3-23.04,34.14-5.68-11.69-12.66-22.38-20.96-32.27-1.36-1.63-3.14-2.4-5.18-2.64l-7.18-1.84c-2.71-20.18-16.39-32.92-33.67-43.43,17.05-9.6,31.74-23.41,33.38-43.1l8.11-1.98c1.6-.39,2.92-.89,3.98-2.16,8.51-10.21,15.35-21.22,21.56-33.26l4.72,9.35c5.3,8.8,10.81,17.35,17.73,24.98,3.9,2.26,10.88,1.91,11.1,4.01,2.12,19.89,16.58,32.09,32.83,42Z"/>
  <path class="st0" d="M210.32,308.06c-6.31-13.65-13.13-25.79-22.81-36.58l-8.98-9.03c14.23-11.83,24.44-28.54,31.82-45.83,6.94,17.85,17.51,33.78,31.61,45.65-14.31,12.56-24.28,27.42-31.64,45.79Z"/>
  <path d="M210.35,216.62c-7.38,17.29-17.59,34-31.82,45.83l8.98,9.03c9.68,10.79,16.5,22.93,22.81,36.58,7.36-18.38,17.32-33.23,31.64-45.79-14.1-11.87-24.67-27.8-31.61-45.65Z"/>
  <path d="M281.73,130.09c-8.48-3.22-16.87-5.04-25.86-6.47-14.79-2.34-29.27-3.66-44.33-3.81-11.9-.12-23.16.89-35.01,2.14-13.27,1.4-25.84,4.25-38.5,8.01l3.35,13.3c18.25-4.9,36.06-7.53,54.56-8.73,27.8-1.79,55.73,2.04,82.83,8.92l2.96-13.37Z"/>
  <path d="M119.94,79.11c5.97,14.68,10.71,29.42,15.96,44.72,6.39-1.96,12.1-3.62,18.42-4.76,41.12-7.44,65.64-7.86,107.25-.9,7.77,1.3,14.47,3.12,21.65,5.59.95.33,1.77-1.38,2-2.2,5.99-21.58,14.03-41.94,24.41-62.46-9.9-.33-23.37,7.12-24.41,15.92-.41,3.46-3.57,2.21-4.58,4.14-.85,1.63,1.79,4.5-.03,8.55-2.95,6.54-10.59,10.13-17.47,6.86-3.91-1.86-7.55-8.06-5.53-12.02,1.39-2.72,4.42-4.2,3.92-7.64-.37-2.58-1.68-5.57-4.63-6.61-3.42-1.2-6.28.88-8.01,2.81-2.87,3.23-.18,6.02-.44,9.15-.48,5.81-7.77,10.76-13.24,10.16-5.83-.65-10-4.62-12.85-9.35-6.73-11.14-7.46-19.97,2.76-28.84l9.25-8.03c1.24-1.07,1.98-2.44,1.18-4.05-2.78-5.54-8.86-7.13-14.88-4.14,2.13-7.16,1.54-14.02-1.85-20.28l-8.52-15.73-9.35,16.32c-3.18,5.55-4.1,13.92-1.75,19.71-3.94-1.66-7-2.11-10.48-.16-2.17,1.22-4.49,3.72-4.88,7.16,8.15,5.4,14.93,12.16,18.64,21.45-.17,8.25-3.53,15.97-9.19,21.91-3.29,2.92-7.47,4.82-11.86,3.97-4.14-.8-7.23-3.86-9.59-7-1.59-2.11-.91-3.37.18-5.46,1.9-3.66-.98-8.85-4.93-9.74-4.1-.92-7.05,2.15-8.11,5.28-1.32,3.93,1.62,6.38,3.85,8.79,1.36,5.25-3.16,11.49-8.27,13.07-6.45,2-12.93-1.88-15.18-7.89-1.02-2.71-.28-5.52.39-8.18-1.25-1.15-2.9-1.14-4.37-1.72l-1.62-5.66c-3.66-7.7-14.92-13.52-23.44-12.29,1.31,3.61,3.5,6.35,5.01,9.63l4.57,9.92Z"/>
</svg>