<?xml version="1.0" encoding="UTF-8"?>
<svg id="_기반" data-name="기반" xmlns="http://www.w3.org/2000/svg" version="1.1" viewBox="0 0 500 500">
  <!-- Generator: Adobe Illustrator 29.8.7, SVG Export Plug-In . SVG Version: 2.1.1 Build 1)  -->
  <defs>
    <style>
      .st0 {
        fill: #fff;
      }
    </style>
  </defs>
  <path d="M305.04,192.26c-1.01,12.7-2,23.9,2.56,36.13,5.78,15.48,17.05,25.64,30.21,34.86-24.49,13.13-39.52,42.44-31.86,70.1-21.41,1.2-41.46,13.15-54.6,29.63l-1.33.39c-14.78-16.04-33.68-28.62-56.04-30.02,7.28-28.47-7.81-55.78-31.84-70.54,24.33-13.86,38.66-41.68,31.84-69.63,6.15-.62,12.33-.66,18.4-2.09,16.96-4,31.05-23.4,37.14-38.88,1.01-.76,4.47,7.78,5.13,8.96,10.41,18.61,27.48,34.7,50.38,31.09ZM316.87,263.24c-15.71-10.47-31.88-23.2-33.17-43.74-.89-1.27-8.97-1.29-11.84-3.64-3.52-2.88-12.69-17.26-15.45-21.87-.78-1.29-5.89-12.5-6.89-11.76-2.01,5.65-5.5,11.28-8.74,16.31-2.54,3.95-10.91,16.88-14.42,18.35-2.2.92-9.24,1.3-10.13,2.61-1.25,19.82-17.39,33.69-33.18,43.3,16.53,9.54,31.74,23.95,33.81,44.03,2.85.3,6.13.6,8.8,1.67,4.92,1.97,14.61,17.02,17.86,22.19,2.21,3.51,4.68,7.82,6,11.76,1.08.8,5.52-9.46,6.21-10.62,2.97-5,12.08-18.79,16.06-22.17,3.19-2.71,9.25-1.92,10.97-3.59,1.15-1.12,2.73-10.83,4.18-14.02,5.32-11.62,18.69-23.1,29.92-28.8Z"/>
  <path d="M310.05,150.38c30.93,2.9,60.81,26.45,78.57,50.69,32.16,43.88,39.99,99.6,16.56,149.58,12.93-11.45,44.07-27.4,54.16-4.55,3.84,8.7.96,23.19-10.09,23.62-10.26.4-5.49-8.38-11.33-12.21-12.53-8.22-31.41,8.27-41.4,14.98l-.42-5.9c-.06-1.01.46-3.05-1.37-2.27-1.13.48-13.04,16.43-15.48,19.12-20.33,22.48-65.06,55.41-96.51,54.67-6.04-.14-15.07-7.87-16.83-13.72,53.8-5.43,100.25-41.38,118.35-92.38,25.5-71.87-5.88-143.01-74.34-174.21-4.73-2.16-10.18-3.41-14.65-5.37-1.28-.56-1.41-.12-1.15-2.04,5.16.35,10.84-.48,15.93,0Z"/>
  <path d="M204.91,150.38c.36,2.07-.09,1.45-1.16,2.04-3.56,1.94-9.8,3.18-14.02,5.09-78.21,35.33-106.58,123.47-63.26,198.31,22.02,38.04,64.64,64.66,108.48,68.58,1.11.76-10.84,12.75-13.42,13.42-4.67,1.21-14.09-1.18-19.01-2.39-38.52-9.45-73.61-38.25-95.94-70.2-4.28-.02-1.94,4.9-3.16,7.27-9.81-7.2-29.57-23.54-41.9-14.58-4.34,3.15-.35,12.56-10.79,11.82-13.14-.93-14.8-20.45-6.93-28.63,14.74-15.31,37.98-.89,50.96,9.55-18.21-39.5-18.38-80.78-.77-120.49,14.82-33.42,56.27-79.78,95.91-79.78h15.02Z"/>
  <path d="M72.91,327.88c-2.49,1.89-12.33-10.57-13.83-13.01-11.76-19.18-10.68-44.07-4.39-64.83,4.34-14.31,17.27-35.46,8.06-49.9-4.96-7.77-12.75-8.1-20.78-5.16,4.65-26.74,42.83-19.71,43.7,5.46,10.55-11.19,19.69-34.15,5.47-45.97-.07-2.6,8.31-.25,9.73.27,4.06,1.47,6.65,3.85,8.91,7.45,8.26-6.72,12.39-35.6-2.73-34.66-7.45.46.08,7.88-6.86,12.34-6.42,4.12-13.94-.1-15.73-6.96-7.41-28.51,33.53-40.76,48.71-15.03,17.98,30.47-11.71,54.7-28.37,75.76-28.91,36.56-49.76,88.22-31.89,134.24Z"/>
  <path d="M412.15,138.23c-4,4.04-13.73,4.81-15.67-1.46-1.47-4.76,2.2-10.8-6.3-9.14-5.11,1-7.73,9.53-7.83,14.08-.15,7.33,3.54,14.08,6.45,20.49,4.88-4.49,12.09-11.9,19.08-7.74-14.53,12.4-4.12,31.91,3.68,45.05,2.31.37,1.41-.19,1.89-1.27,2.16-4.83,2.68-9.15,6.7-13.33,8.59-8.92,25.69-10.32,33.67.09,1.39,1.81,6.45,10.85,1.39,9.55-6.78-1.74-11.76-2.91-17.27,2.95-11.97,12.72.91,33.82,5.48,47.06,7.4,21.44,9.76,45.69-.77,66.63-2,3.97-10.19,15.44-14.29,16.67-1.28.38-1.59-.03-1.29-1.29.86-3.62,2.97-7.55,3.88-11.6,10.57-46.97-11.18-89.45-39.46-124.98-14.89-18.71-32.61-32.44-28.87-59.87,2.91-21.41,29.53-36.5,46.68-19.85,6.81,6.61,10.04,20.68,2.84,27.95Z"/>
  <path d="M412.46,420.75c10.41-1.87,6.74-14.44-2.25-15.51-18.57-2.2-27.46,25.27-41.44,33.25,4.85,1.33,10.28,4.19,15.26,4.78,3.61.43,5.08-.55,7.97-.68,1.37-.06,2.63-.62,2.25,1.35-11.37,12.77-26.58,20.08-43.87,16.58-7.98-1.62-14.62-7.01-22.21-7.82-10.43-1.12-22.65,4.38-32.22-4.2,23.66-4.75,45.26-15.63,63.73-30.93,17.1-14.16,33.9-40.38,59.37-36.65,20.17,2.96,29.14,32.4,11.57,43.87-5.47,3.57-17.3,3.9-18.16-4.04Z"/>
  <path d="M203.09,448.06c-7.58,9.14-20.65,3.9-30.38,4.65-17.13,1.32-21.08,14.28-44.22,6.67-5.15-1.69-20.83-10.69-22.79-15.45-.75-1.83,1.1-1.34,2.17-1.26,3.37.25,4.96,1.1,8.97.58,4.87-.64,9.78-3.1,14.34-4.76-12.97-7.29-26.16-39.86-44.37-32.54-4.69,1.88-7.56,9.06-3.46,13.01,1.54,1.49,5.77,1.33,5.04,3.13-6.34,8.31-17.18,6.26-23.23-1.33-10.22-12.82-3.46-32.88,11.69-38.42,26.51-9.69,46.84,21.82,64.33,36.14,17.93,14.69,39.03,25.24,61.91,29.58Z"/>
  <path d="M164.59,370.82c2.14-.49,15.06,2.49,18.31,3.2,23.79,5.19,46.32,14.03,67.07,26.68,19.51-11.9,40.89-20.83,63.26-25.95,4.35-1,18.77-4.36,22.18-3.83,1.21.19,9,6.4,8.77,7.46-20.23,16.82-45.32,29.07-71.15,34.46-18.19,3.79-29.39,3.41-47.52-.42-25.52-5.38-49.68-17.52-69.74-34.02l8.82-7.59Z"/>
  <path d="M325.98,363.38c-27.75,2.63-52.16,14.79-76.01,28.15-18.08-10.34-35.57-18.79-55.79-24.25-2.7-.73-20.2-3.96-20.21-5.26,4.35-4.37,7.65-14.38,11.8-18.24,1.22-1.14,1.2-1.22,2.94-1.16,4.06.15,13.38,2.96,17.6,4.34,16.05,5.25,31.94,15.25,43.66,27.33,16.78-16.87,38.93-28.62,62.72-31.64l13.29,20.73Z"/>
  <path d="M294.11,460.8c-2.73,7.54-14.81,11.52-22.19,10.83-3.18-.3-5.77-1.98-8.75-2.63,5.9,13.08-6.78,21.19-13.2,30.93-6.69-9.81-20.35-18.6-12.29-31.83-3.27,1.15-6.21,2.96-9.79,3.4-8.18.99-18.09-2.6-22.08-10.22,19.6-3.53,35.52-18.31,43.72-35.96,4.4,4.82,6.75,10.84,10.94,15.9,7.87,9.52,21.03,18.88,33.65,19.6Z"/>
  <path d="M152.1,286.92c1.93,11.64,7.81,21.66,19.48,25.43l.56,1.87c-6.91,1.84-13.43,7.59-16.54,13.96-1.41,2.88-1.84,6.89-3.26,9.47-.58,1.05.04,1.53-2.03,1.16-1.42-8.95-5.94-16.61-13.37-21.69-1.12-.76-8.21-3.05-6.66-4.7,13.36-3.7,15.84-12.84,19.93-24.24.46-1.28-.3-1.54,1.91-1.27Z"/>
  <path d="M368.76,312.43l-.56,1.87c-11.64,3.63-15.48,14.4-19.93,24.51-3.79-10.38-8.72-21.39-20.47-24.59l.56-1.87c11.49-3.9,16.81-14.3,19.48-25.42l8.18,16.83c3.4,3.86,7.76,7.09,12.74,8.66Z"/>
  <path d="M363.3,231.41l-.56,1.87c-3.51.96-6.84,3.43-8.94,6.37-1.64,2.3-3.79,9.57-4.17,9.95-1.52,1.5-1.53-.46-1.9-1.27-2.94-6.59-4.04-13.17-12.65-15.12l.63-1.8c8.17-1.92,9.86-10.05,13.48-16.39,2.93,6.59,5.93,15.12,14.11,16.39Z"/>
  <path d="M163.94,231.41c.21,1.19.24,1.16-.57,1.88-2.17,1.94-4.52,2.25-7.08,5.47-2.87,3.6-3.24,7.16-5.55,10.84-3.31-6.64-5.84-14.66-14.1-16.39l.63-1.8c8.18-2,10.04-9.92,13.48-16.39,3.08,6.41,4.98,14.77,13.19,16.39Z"/>
  <path class="st0" d="M316.87,263.24c-11.23,5.7-24.61,17.18-29.92,28.8-1.46,3.19-3.03,12.9-4.18,14.02-1.72,1.67-7.79.88-10.97,3.59-3.98,3.39-13.09,17.17-16.06,22.17-.69,1.16-5.13,11.43-6.21,10.62-1.32-3.94-3.79-8.25-6-11.76-3.25-5.17-12.94-20.22-17.86-22.19-2.67-1.07-5.95-1.37-8.8-1.67-2.07-20.08-17.28-34.49-33.81-44.03,15.79-9.61,31.93-23.48,33.18-43.3.89-1.31,7.94-1.69,10.13-2.61,3.51-1.47,11.88-14.4,14.42-18.35,3.23-5.02,6.73-10.66,8.74-16.31,1-.75,6.11,10.46,6.89,11.76,2.77,4.6,11.93,18.99,15.45,21.87,2.87,2.34,10.95,2.36,11.84,3.64,1.29,20.54,17.45,33.27,33.17,43.74ZM251.33,217.74c-1.65-.34-1.8.45-2.51,1.58-2.25,3.59-4.1,9.51-6.43,13.59-6.07,10.64-14.09,21.56-23.86,29.02l.21,2.09c14.23,10.86,24,27.48,30.78,43.83.91.68,7.14-13.61,8.03-15.17,6.27-11.06,14.57-22.13,24.72-29.88-13.91-11.59-25.3-27.74-30.94-45.06Z"/>
  <path d="M251.33,217.74c5.64,17.32,17.03,33.48,30.94,45.06-10.15,7.76-18.45,18.82-24.72,29.88-.88,1.56-7.12,15.86-8.03,15.17-6.79-16.35-16.55-32.97-30.78-43.83l-.21-2.09c9.77-7.46,17.78-18.38,23.86-29.02,2.33-4.09,4.18-10.01,6.43-13.59.71-1.13.85-1.92,2.51-1.58Z"/>
  <g>
    <path d="M251.32.18c4.46,12.07,14.71,21.67,9.12,35.5,6.09-4.16,16.74-.58,14.87,7.37-5.74,4.06-17.79,14.17-18.51,21.39-.9,9.09,8.8,26.24,19.53,25.9,4.06-.13,11.52-4.73,12.16-8.89.53-3.4-3.29-5.14-.22-10.2,3.55-5.86,12.25-4.41,13.1,2.29.98,7.67-8.72,7.32-2.03,17.45,7.54,11.42,26.35.76,21.23-11.96,5.12-2.1,3.5-3.35,5.21-6.67,4.68-9.13,13.64-13.44,23.86-13.91-10.17,20.79-18.43,42.43-25.04,64.64l-.87.76c-47.84-14.64-100.96-13.89-148.85.13-5.17-17.34-10.53-35.11-18.06-51.59-.95-2.09-7.77-12.72-6.53-13.95,8.43.26,19.49,4.74,22.96,12.98,1.66,3.94-.45,6.56,6.17,7.05-6.1,13.18,13.16,23.86,20.78,12.13.98-1.51,2.97-6.41,2.67-7.93-.31-1.6-3.57-2.92-4.15-4.84-3.77-12.54,15.14-13.83,13.45-1.72-.54,3.9-3.25,3.68.52,8.68,8.75,11.6,21.49,3.47,26.34-7.24,7.37-16.26.16-20.77-10.45-31.42-2.09-2.1-5.24-2.06-4.43-6.14,1.07-5.41,10.28-8.1,14.42-4.31-1.58-6.7-1.33-12.08,1.14-18.44,1.1-2.84,7.51-14.22,9.39-16.1.75-.75.83-1.29,2.21-.96ZM250.41,83.93l-8.08,10.6,7.63,11.23,6.77-10.45-6.33-11.37Z"/>
    <path d="M322.34,129.45l-2.92,12.1-2.01,1.51c-44.24-11.81-91.46-12.36-135.65-.06l-4.23-13.02c46.47-14.29,98.1-13.45,144.8-.52Z"/>
    <polygon class="st0" points="250.41 83.93 256.74 95.3 249.97 105.76 242.34 94.53 250.41 83.93"/>
  </g>
</svg>