<?xml version="1.0" encoding="UTF-8"?>
<svg id="_잠재심리" data-name="잠재심리" xmlns="http://www.w3.org/2000/svg" version="1.1" viewBox="0 0 500 500">
  <!-- Generator: Adobe Illustrator 29.8.7, SVG Export Plug-In . SVG Version: 2.1.1 Build 1)  -->
  <defs>
    <style>
      .st0 {
        fill: #fff;
      }
    </style>
  </defs>
  <path d="M143.43,155.28l40.74-21.32-11.16-2.57-3.85-13.72c-.23-1.18.57-1.54,1.37-2.08,4.72-3.16,22.38-7.09,28.64-8.33,43.13-8.59,89.41-6,130.95,8.23-2.18,10.62-1.39,17.42-14.21,18.47,6.95,7.85,17.91,8.56,26.87,12.93l13.88,8.38c-13.02-27.87,5.12-62.66,38.27-58.64,21.14,2.57,37.51,29.23,20.05,45.42-11.18,10.37-33.78,5.48-26.09-12.36,16,7.86,16.32-15.68,1.14-16.86-11.33-.88-17.53,11.43-18.19,21.14-1.31,19.41,11.9,37.28,18,54.48,3.34-4.1,4.33-9.09,8.15-13.17,26.7-28.53,81.41,6.53,64.03,43.19-7.81,16.48-33.76,16.53-35.19-1.23-.59-7.33,6.82-1.66,10.27-6.64,7.33-10.57-9.33-20.95-19.77-9.35-10.74,11.92-.03,33.25.98,47.34,2.41,33.88-17.99,66.05-48.36,80.1,32.14-38.11,35.37-87.61,7.6-129.37-16.56-24.9-31.2-28.75-56.58-40.08-13.56-6.05-28.27-16.99-27.78-33.34-11.83-1.12-23.99-.36-34.43-6.8-1.87-1.15-8.6-7.51-9.52-7.35-10.5,12.19-26.64,13.31-41.7,14.27l-1.39,1.45c-3.26,28.95-34.89,31.52-55.03,43.52-19.22,11.45-33.91,32.38-41.54,53.23-13.8,37.73-4.48,73.24,19.65,104,.15.71-.92.61-1.4.45-2.71-.88-11-6.98-13.66-9.09-23.39-18.44-35.89-45.66-32.2-75.6,1.74-14.15,10.27-30.03.27-43.15-9.2-12.08-26.58-1.69-19.55,9.13,3.86,5.95,11.21-.1,10.6,7.26-1.53,18.45-31.36,17.35-37.23-3.38-9.34-33.01,30.72-61.91,59.72-44.55,8.39,5.02,8.88,8.81,12.52,16.86.51,1.12-.45,1.71,1.98,1.33,6.88-19.2,25.31-45.3,14.6-66.24-7.48-14.62-28.44-11.6-25.9,4.12,1.54,9.55,9.14,3.21,10.71,3.45,4.58.7,4.24,14.4-5.98,16.55-29.24,6.17-35.96-36.31-7.33-48.08,35.34-14.52,60.99,27.47,47.08,57.97Z"/>
  <path d="M250.5,218.77c16.65-54.67,84.19-59.57,115.64-13.76,31.35,45.65,13.26,95.51-20.38,133.18-18.94,21.2-45.11,37.4-63.05,58.24-21.27,24.7-16.18,39.66,14.23,50.24-5.99,7.22-14.57,10.37-23.93,8.78-3.91-.66-6.6-3.43-10.17-4.51,1.22,3.33,2.99,5.44,3.53,9.24,2.12,14.82-10.39,26.59-16.33,39.06-6.24-12.62-18.8-23.73-16.35-39.08.53-3.32,2.66-6.07,3.56-9.23-3.57,1.07-6.27,3.85-10.17,4.51-9.11,1.54-17.71-.95-23.93-7.84-.43-1.88.72-1.33,1.88-1.84,6.05-2.63,11.21-3.53,16.56-8.12,21.39-18.32-3.83-40.68-17.96-54.02-43.84-41.41-104.36-83.01-81.77-154.68,17.73-56.25,91.36-79.59,122.18-23.13,2.35,4.3,3.55,9.44,6.46,12.95ZM250.5,407.34c12.15-33.34,45.39-53.25,67.78-79.58,19.51-22.95,34.83-48.38,29.72-79.98-5.51-34.08-37.94-59.64-72.25-44.99-11.35,4.85-18.39,13.14-25.72,22.59-38.67-53.7-104.19-20.58-99.01,42.17,4.34,52.61,64.56,84.81,91.35,124.71l8.12,15.08Z"/>
  <path d="M105.52,354.28l-23.61-13.82c-34.5-22.74-48.49-61.01-15.25-92.31-9.15,34.9,14.35,63.74,40.86,82.81,28.12,20.23,98.78,49.49,88.71,93.66-2.62,11.47-11.94,20.68-24.04,21.49-15.5,1.03-29.37-17.15-16.46-29.28,5.6,16.36,23.48,6.23,16.29-9.17-8.64-18.48-46.99-21.51-58.4-4.05-5.69,8.7-1.5,22.3,9.9,21.76-2.13,6.75-13.99,7.13-19.89,5.2-20.55-6.74-17.94-36.95-.67-46.13l12.02-5.49c-7.22-1.93-14.8-.34-22.15-1.07-20.31-2.03-37.49-15.01-42.77-34.93-.24-.92-2.79-9.94,0-8.53,5.14,7.16,11.64,12.91,19.89,16.13,2.73,1.06,10.85,3.77,13.29,3.77h22.27Z"/>
  <path d="M415.87,354.28c8.13-.86,20.35-5.98,26.56-11.35,1.94-1.68,6.71-8.16,7.57-8.54,2.35-1.04.41,5.93.2,6.83-4.43,18.78-18.73,31.62-37.43,35.54-9.36,1.96-18.36.46-27.69,2.17l9.49,4.24c23.24,9.55,21.29,49.45-6.13,48.85-3.52-.08-11.64-2.54-11.88-6.66,11.69.26,14.96-13.24,9.32-22.12-11.11-17.47-49.18-13.82-58.43,4.76-7.49,15.04,10.95,25.15,17.36,8.85,11.14,12.39-.59,29.75-16.1,29.43-21.63-.44-30.37-24.39-23.68-42.71,13.22-36.23,62.49-53.26,90.79-75.05,24.38-18.78,45.93-46.64,37.61-79.43,32.81,30.63,18.43,69.07-15.25,91.37l-24.56,13.82c7.14-.55,15.26.74,22.27,0Z"/>
  <path d="M274.19,156.24l-.62,1.88c-12.84,3.45-19.2,15.83-23.08,27.48-4.34-5.9-5.88-13.27-10.88-18.96-3.49-3.98-8.69-7.04-13.75-8.53-.48-2.21.29-1.51,1.22-2.11,2.61-1.68,5.76-2.58,8.57-4.67,6.44-4.79,11.09-12.99,12.96-20.68,2.07-1.94,7.48,11.62,8.34,12.98,4.12,6.51,9.88,10.36,17.24,12.62Z"/>
  <path class="st0" d="M250.5,407.34l-8.12-15.08c-26.79-39.9-87.01-72.09-91.35-124.71-5.18-62.75,60.34-95.87,99.01-42.17,7.33-9.45,14.37-17.74,25.72-22.59,34.31-14.65,66.74,10.91,72.25,44.99,5.11,31.6-10.21,57.02-29.72,79.98-22.39,26.33-55.63,46.24-67.78,79.58ZM213.34,225.67c-18.06,2.1-32.54,19.21-32.99,37.22-.97,38.77,54.26,64.07,69.68,96.11,4.15-5.98,7.56-12.42,12.31-18,17.93-21.05,53.32-42.15,56.28-71.65,4.19-41.8-45.5-60.59-68.59-25.96-8.79-12.68-20.9-19.56-36.69-17.72Z"/>
  <g>
    <path d="M260.93,33.98c5.57-3.15,14.99,2.55,13.11,8.81-.94,3.16-8.24,3.91-11.22,6.83-15.19,14.89,10.84,40.32,26.91,23.12,5.38-5.76,1.24-5.77,1.44-10.78.39-9.91,14.75-12.34,15.31-.95.33,6.84-6.98,5.84-4.17,15.46,3.08,10.51,18.81,10.25,20.63.3.37-2.01-1.12-3.49.62-6.2,2.1-3.26,6.21-1.63,7.99-3.39.83-.81,2.71-6.48,4.4-8.87,7.08-10.02,22.8-16.18,34.89-15.8,1.59,1.41-5.73,6.04-6.67,7.06-8.76,9.45-16.61,23.22-21.92,34.94-1.68,3.71-9.3,25.8-10.69,26.01-51.83-19.65-112.55-18.87-164.44.22-7.88-24.54-18.67-50.03-38.86-66.82-.68-1.95,3.27-1.14,3.94-1.08,11.58.99,25.75,6.91,32.47,16.79,1.39,2.04,2.52,6.65,3.76,7.61,1.95,1.5,5.8.4,7.68,2.74,1.04,6.08-.99,10.38,5.87,13.08,6.94,2.73,13.67-.25,15.73-7.54,2.32-8.2-.88-5.21-3.04-8.93-5.37-9.24,6.18-18.39,12.22-9.38,4.2,6.26-.76,8.23.37,11.86.48,1.55,3.47,4.64,4.85,5.66,18.99,14.05,40.25-15.77,22.22-26.96-3.9-2.42-9.9-.74-9.24-6.44.69-6.04,7.53-9.57,13.07-7.35-4.28-13.13,6.7-22.25,11.39-33.16.62-.47,1.71,1.59,2.07,2.18,5.54,8.94,13.23,20.25,9.29,30.98ZM248.63,74.74l-4.47,7.1c2.65,3.86,4.84,9.09,9.19,3.79,4.64-5.67-3.63-11.65-4.72-10.89Z"/>
    <path class="st0" d="M248.63,74.74c1.09-.76,9.36,5.23,4.72,10.89-4.35,5.3-6.54.07-9.19-3.79l4.47-7.1Z"/>
  </g>
  <path d="M213.34,225.67c15.79-1.83,27.9,5.04,36.69,17.72,23.08-34.63,72.78-15.84,68.59,25.96-2.96,29.5-38.35,50.6-56.28,71.65-4.75,5.58-8.15,12.02-12.31,18-15.42-32.04-70.65-57.34-69.68-96.11.45-18.01,14.93-35.12,32.99-37.22ZM280.83,284.17c-10.98-2.62-20.05-9.63-25.42-19.61-.52-.97-4.72-12.51-5.84-11.67-2.86,9.16-7.47,18.16-15.26,24.08-4.7,3.57-9.27,4.44-13.87,6.97-1.09.6-1.6-.05-1.21,2.11,16.53,2.9,25.46,17.75,30.79,32.22,5.58-13.25,9.94-22.86,23.19-29.88,2.16-1.15,4.42-1.4,6.29-2.24,1.12-.51,1.71.45,1.33-1.98Z"/>
  <path class="st0" d="M280.83,284.17c.38,2.42-.21,1.47-1.33,1.98-1.87.85-4.13,1.1-6.29,2.24-13.25,7.02-17.6,16.63-23.19,29.88-5.33-14.48-14.26-29.32-30.79-32.22-.39-2.16.12-1.51,1.21-2.11,4.6-2.53,9.17-3.4,13.87-6.97,7.79-5.92,12.39-14.92,15.26-24.08,1.12-.84,5.32,10.7,5.84,11.67,5.37,9.97,14.44,16.99,25.42,19.61Z"/>
</svg>