<?xml version="1.0" encoding="UTF-8"?>
<svg id="_평판" data-name="평판" xmlns="http://www.w3.org/2000/svg" version="1.1" viewBox="0 0 500 500">
  <!-- Generator: Adobe Illustrator 29.8.7, SVG Export Plug-In . SVG Version: 2.1.1 Build 1)  -->
  <defs>
    <style>
      .st0 {
        fill: #fff;
      }
    </style>
  </defs>
  <path d="M132.87,159.01c8.46-7.58,31.58-15,35.93-25.48.93-2.23.95-6.22,2.12-7.4,2.36-2.38,22.18-7.5,26.68-8.56,34.52-8.09,100.92-9.85,132.73,7.28,5.59,3.01,2.46,6.42,5.5,11.64,5.55,9.53,24.85,14.8,33.18,22.52-11.89-25.19.74-63.09,31.96-63.83,19.21-.45,33.92,18.44,27.13,36.74s-32.87,13.12-28.18-1.51c1.6-4.98,10.61.95,8.95-7.83-2-10.55-17.58-8.27-22.59,1.8-10.87,21.85,11.46,46.12,20.84,64.15l5.86-11.74c9.13-12.62,27.13-17.28,40.5-8.44,7.7,5.1,12.39,16.9,6.47,24.94l-7.4-7.81c-11.97-4.85-20.78,4.72-22.34,16.16-2.19,16.09,8.86,39.64,11.06,57.01,2.84,22.45-.33,45.9-9.23,66.7-2.27,5.3-5.58,10.22-7.78,15.54,22.41-6.85,47.9,6.92,43.57,32.63-2.31,13.76-23.18,23.56-30.22,7.84.05-.94,10.12-2.29,9.09-10.03-.86-6.5-8.49-10.22-14.45-10.33-12.8-.24-31.13,16.59-40.89,24.65-1.11.92-3.76.97-1.85,2.86,28.66-3.04,54.32,31.72,31.94,54.79-14.11,14.55-44.21,8.5-36.21-14.8,2.95.32,3.2,3.76,6.42,4.52,11.36,2.68,15.02-12.75,3.75-19.94-10.16-6.48-22.96-4.37-34.16-2.37-16.36,2.92-32.06,8.92-47.43,14.95l13.56.24c13.77,1.37,22.54,15.54,13.57,27.36l-7.76-7.46c-5-3.1-12.12-3.57-17.84-2.91-16.63,1.92-33.12,22.79-48.12,3.1-.59-3.4,19.72-20.35,23.44-23.02,20.02-14.35,44.15-21.08,64.97-34.06,75.97-47.35,81.69-150.01,16.28-209.43-8.14-7.4-18.83-12.95-26.69-19.97-6.2-5.54-8.77-13.13-16.47-16.86-37.42-18.1-98.79-15.93-138.19-5.46-4.72,1.25-20.79,5.7-24.1,7.8-.65.41-6.23,10.1-8.79,12.63-8.39,8.29-22,15.16-31.47,23.76-58.21,52.88-59.69,142.67.52,194.72,33.04,28.57,81.6,33.86,108.93,69.88-16.03,19.94-33.74-1.42-51.94-3.08-10.26-.94-18.1,1.35-23.69,10.34-8.01-7.71-3.98-20.57,5.53-24.92,6.91-3.16,13.31-2.91,20.65-2.2-8.36-4.53-17.56-7.76-26.66-10.48-14.98-4.47-44.34-12.71-57.17-1-11.66,10.64,1.03,26.7,12.41,13.85,7.57,19.19-13.95,27.86-29.54,19.55-17.15-9.14-18.89-32.58-6.66-46.71,9.09-10.5,18.59-11.57,31.4-13.2,1.57-.2,2.69.41.99-1.52-13.72-6.61-25.32-24.51-41.55-25.67-14.69-1.05-23.49,15.13-7,20.43-8.29,16.62-29,5.3-30.46-10.5-2.24-24.22,22.94-36.35,43.79-30-14.84-25.29-20.74-52.97-17-82.22,2.36-18.49,13.86-42.19,10.87-59.7-1.9-11.11-14.35-19.98-24.3-11.82-2.56,2.1-2.41,6.03-5.74,6.15-5.07-13.8,3.81-26.84,18.04-29.09,17.33-2.73,30.81,7.76,34.8,24.33,10.77-14.98,36.71-50.59,20.47-68.07-10.1-10.87-23.83-.79-19.11,6.49,2.16,3.33,6.65-1.6,8.23,3.47,4.18,13.4-19.82,20.15-28.04,3.24-11.21-23.05,12.59-43.5,35.88-36.83,26.6,7.62,32.04,39.11,23.05,62.18Z"/>
  <path d="M192.86,351.37c5.44-.64,10.93-5.6,12.6-10.74,7.95-24.41-26.47-41.91-36.21-60.07.12-1.33,8.16-10.28,9.79-12.06,11.85-12.99,29.5-23.25,27.15-43.31-.99-8.49-6.11-10.42-12.09-14.54-.84-.58-1.77.15-1.23-2.1,30.2-14.62,53.71,15.48,37.62,43.8-3.75,6.61-22.64,24.57-22.41,28.95s20.24,23.77,23.99,31.34c11.25,22.72-3.3,49.65-29.93,45.17-1.6-.27-11.13-4-9.27-6.43Z"/>
  <path d="M307.12,210.41c-11.54,3.34-14.94,13.66-12.9,24.82,2.38,13,20.84,26.26,29.58,36.13,1.65,1.87,7.27,7.96,7.01,9.79-.2,1.4-5.62,7.7-7.01,9.28-8.26,9.45-26.42,23.19-29.36,35.39-2.89,12.02,1.1,22.96,13.63,26.01-15.63,15-41.47,2.32-43.69-18.19-2.61-24.09,17.73-34.74,28.04-52.8-6.23-11.24-17.94-18.85-23.9-30.39-11.82-22.88,2.74-49.36,29.48-45.66,1.51.21,10.89,3.25,9.13,5.62Z"/>
  <path d="M327.13,380.87c-.6-2.45.78-1.66,1.78-2.47,9.22-7.5,17.15-13.49,24.85-22.78,39.81-48.06,36.13-120.63-10.43-162.82-4.07-3.69-12.38-8.22-15.27-11.4-1.06-1.18-.53-2.29.48-2.36,1.81-.13,12.71,3.8,15.11,4.87,61.28,27.28,72.9,113.48,32.96,164.1-11.54,14.63-30.83,29.94-49.49,32.87Z"/>
  <path d="M171.9,179.01c.43,1.98-1.03,2.16-2.16,3.06-3.87,3.08-8.37,5.57-12.13,8.82-54.34,47.14-52.82,130.37,0,178.09,2.31,2.09,12.12,8.68,12.9,9.96.43.71.62,1.01.44,1.93-28.31-6.24-53.25-32.91-64.26-59.05-23.6-56.03,4.05-128.35,65.21-142.82Z"/>
  <path d="M324.27,207.58c7.22,2.93,14,8.93,19.06,14.73,29.51,33.85,28.14,85.15-1.9,118.13-2.3,2.52-13.86,13.24-16.67,12.83-.7-.1-1.92-1.65-.66-2.53,26.58-36.05,31.3-85.03,9.85-124.76-2.04-3.77-9.32-12.95-10.12-15.54-.32-1.04.53-1.84.44-2.86Z"/>
  <path d="M174.76,353.26c-2.42,2.42-18.44-13.76-20.48-16.17-27.85-32.96-27.66-84.35,1.9-116.2,2.08-2.24,15.26-13.37,17.16-13.29,1.05.04,1.39,1.61,1.03,2.9-1.01,3.59-9.75,14.4-12.15,19.29-17.16,35-14.46,74.16,3.81,107.93,1.21,2.24,10.03,14.25,8.73,15.54Z"/>
  <path d="M436.63,332.3c13.91-21.41,23.06-48,21.94-73.83-.41-9.47-4.52-20.3-4.82-28.57-.07-1.79-.22-3.07,1.45-4.22,26.04,24.18,30.73,76.12,1.44,99.5-5.61,4.48-12.69,7.68-20.01,7.12Z"/>
  <path d="M63.34,332.31c-14.07.26-27.22-11.47-33.21-23.44-13.3-26.61-6.67-62.74,14.64-83.18,1.41.97,1.42,1.69,1.46,3.27.15,6.5-4.36,19.36-4.83,27.62-1.12,19.49,3.42,38.72,11.3,56.39l10.64,19.35Z"/>
  <path d="M252.83,439.92c5.19,11.87,11.82,19.9,24.32,23.79,1.11.34,1.66-.7,1.41,1.43-.74,6.23-9.8,9.22-15.24,8.11,1.13,4.06.62,7.01-1.06,10.84-.88,2-7.75,13.48-8.98,14.82-.79.86-.95,1.29-2.33.99-3.17-9.52-12.71-15.5-10.48-26.67-7.32.98-15.23-1.34-16.2-9.51,7.64.13,14.89-5.73,19.46-11.49,2.34-2.95,5.01-9.39,7.12-11.72.66-.72,1.54-1,1.97-.6Z"/>
  <path d="M276.65,390.41l-.58,1.96c-13.9,5.01-19.64,18.64-24.65,31.34-5.86-12.46-10.5-27.02-25.23-31.42-.4-.44-.13-1.31.6-1.97,1.79-1.63,6.36-3.28,8.84-5.24,8.46-6.68,12.12-16.15,15.33-26.1,1.02-.77,4.83,11.59,5.53,13.02,3.93,7.95,11.68,15.5,20.16,18.42Z"/>
  <path d="M275.7,175.2c1.54,1.68-7.88,6.01-9.44,7.22-8.17,6.32-10.73,15.23-14.84,24.18-6.2-12.13-10.29-25.73-25.23-29.51,2.67-3.01,6.72-4.09,9.97-6.68,8.32-6.61,10.7-15.65,15.26-24.72,4.88,12.32,10.03,26.04,24.28,29.51Z"/>
  <path d="M250,313.27c-4.02-11.85-10.15-23.1-18.99-32.03,8.48-9.84,15.41-20.03,18.99-32.72,1.15-.86,5.27,11.56,5.84,12.72,3.83,7.74,8.59,13.47,14.08,20-9.18,8.03-13.11,19-17.98,29.7-.43.94-.63,2.23-1.94,2.33Z"/>
  <g>
    <path d="M262.37,29.49c6.81-1.07,12.54,2.17,10.98,9.52-12.96,7.65-18.44,16.59-9.85,30.79,7.23,11.95,20.7,13.55,28.81,1.53,4.58-6.78.92-6.43.48-11.84-.72-8.93,10.07-14.41,14.74-6.1,5.01,8.92-2.77,9.79-4,13.92-4.38,14.72,13.8,27.79,24.13,14.62,3.76-4.8.3-7.05,1.85-10.51,1.92-4.27,8.62-3.54,8.99-3.89.27-.25.78-5.19,1.78-7.27,4.36-9.08,17.04-12.06,25.89-14.57-4.85,10.72-10.75,20.89-15.39,31.73-5.8,13.54-10.22,27.64-15.16,41.5-1.28.9-16.3-5.06-19.18-5.88-47.68-13.45-102.25-11.58-148.32,6.92-5.98-20.13-13.41-41.47-23.32-60.01-.99-1.85-8.91-13.46-8.11-14.26,9.25,1.77,23.03,5.85,27.37,15,.85,1.79.9,4.96,1.66,5.96,1.25,1.66,7.19.92,8.6,3.78,2.72,5.54-3.2,10.76,7.43,15.42,9.83,4.31,17.41-1.63,19.26-11.55s-1.53-6.46-4.22-11.1c-6.2-10.69,8.68-19.84,14.06-9.3,4.03,7.89-5.16,10.46,3,19.85,15.67,18.02,40.16-9.9,27.59-26.64-2.63-3.5-10.66-7.34-10.49-10.38.33-5.78,6.4-7.9,11.44-7.24-4.09-11.06,4.81-20.65,10-29.49,4.83,8.87,13.87,18.72,10,29.49ZM252.83,96.16l6.41-10c-1.5-1.43-6.3-11.37-8.28-9.99l-5.74,10.01,7.61,9.98ZM209.52,88.56c-7.47,6.02,1.45,14.64,4.14,4.41l-4.14-4.41ZM295.68,88.55c-1.31-.91-4.86,3.36-5.6,4.41l3.26,5.1,4.99-4.27-2.66-5.24Z"/>
    <path class="st0" d="M252.83,96.16l-7.61-9.98,5.74-10.01c1.98-1.38,6.78,8.56,8.28,9.99l-6.41,10Z"/>
    <path class="st0" d="M295.68,88.55l2.66,5.24-4.99,4.27-3.26-5.1c.73-1.06,4.28-5.32,5.6-4.41Z"/>
    <path class="st0" d="M209.52,88.56l4.14,4.41c-2.68,10.23-11.61,1.62-4.14-4.41Z"/>
  </g>
</svg>