<?xml version="1.0" encoding="UTF-8"?>
<svg id="_행동양상" xmlns="http://www.w3.org/2000/svg" version="1.1" viewBox="0 0 434.48 501">
  <!-- Generator: Adobe Illustrator 30.5.1, SVG Export Plug-In . SVG Version: 2.1.4 Build 3)  -->
  <defs>
    <style>
      .st0 {
        fill: #010101;
      }
    </style>
  </defs>
  <path d="M146.49,232.73c-13.94-17.87-10.38-43.71,9.76-54.64-7.26,26.49,14.92,45.98,34.84,59.86,11.52,8.03,23.43,14.42,35.66,21.38l39.92,22.69c8.31,4.73,15.7,10.07,23.02,16.15,12.2,10.14,19.88,23.82,12.81,38.75-1.92,4.07-3.92,7.67-7.13,10.9-5.83,5.87-12.16,11.04-19.29,15.31l-19.26,11.53c-6.61,3.96-13.19,7.78-18.49,13.25-6.99,7.2-6.29,17.81.71,24.54l11.3,9.62,22.59-20.17c11.82-10.56,23.41-20.69,34.23-32.29,20.34-21.8,37.25-49.85,40.31-79.83,3.19-31.25-6.71-60.32-24.16-86.08-10.81-15.96-24.54-29.38-40.97-39.52-6.92-4.27-13.99-7.3-21.49-10.55-.56-.24-.66-.99.07-1.25,25.19,3.2,47.76,14.32,66.44,31.05,14.63,13.11,25.45,29.14,33.59,46.92,19.17,41.89,14.66,85.87-9.74,124.56-8.74,13.85-19.37,25.79-31.41,36.79-11.38,10.4-23.43,19.09-36.29,27.47l-14.25,9.29c-14.07,9.17-16.82,21.25-17.53,21.18-.27-.03-.93-.36-1.15-.7-6.44-10.05-14.62-17.95-24.21-24.97l-14.22-10.4c-4.88-3.57-8.59-8.09-10.94-13.66-3.63-8.59-1.49-17.8,4.94-24.43,4.14-4.26,8.46-7.91,13.62-11l25.49-15.28c9.36-5.61,21.31-14.18,21.85-25.17.55-11.25-14.14-23.64-23.69-28.89l-39.67-21.82c-20.31-11.17-42.55-21.68-57.29-40.6Z"/>
  <path d="M194.4,320.8c13.23-6.74,17.72-12.05,24.04-25.15,1.64,1.1,2.32,3.03,2.99,4.75,2.94,7.5,8.14,13.35,15.15,17.3,1.87,1.05,3.63,1.53,5.75,3.29-13.72,4.54-20.09,14.25-23.76,27.71l-10.6,5.13c-9.25,4.47-17.45,9.99-24.96,16.98-8.84,8.23-11.83,20.96-6.38,31.9,2.61,5.24,6.51,9.51,11.16,12.89l17.36,12.64-10.68,11.03-9.2,11.02c-4-10.55-11.83-17.14-20.9-23.07l-26.05-17.02c-11.87-7.76-22.07-17.12-31.88-27.39-13.55-14.19-24.49-29.94-32.76-47.74-7.69-16.55-11.06-34.06-11-52.34.08-23.3,6.33-45.24,18.49-64.97,6.54-10.61,13.6-20.18,22.58-28.96,14.14-13.81,30.95-24.12,49.48-30.99,8.24-2.26,15.78-5.64,24.96-5.01-30.11,11.15-51.29,30.6-68.93,56.66-8.43,12.45-14.59,25.93-18.79,40.38-8.5,29.25-3.11,61.12,12.69,87.69,18.37-25.03,42.64-41.58,68.48-57.37l11.2-6.87,22.42,12.09-25.01,16.2c-11.45,7.42-21.33,16.4-30.41,26.58l-7.32,9.54c-4.95,6.45-7.72,14.43-8.55,22.68-.82,8.1,1.68,15.84,6.05,22.43l5.64,7.39c2.51-24.53,22.96-36.82,45.56-41.34,8.7-1.74,17.16-1.74,26.29-1.74-1.27-6.15-4.32-11.11-8.02-15.82s-9.27-7.75-15.07-10.48Z"/>
  <path d="M29.52,290.29c-2.25-19.78.44-39.13,6.98-57.87l7.98-22.86c1.56-4.47,1.58-9.42,1.18-14.07-.3-3.54-1.69-6.48-3.95-9.04-3.67-4.15-9.36-5.38-14.44-2.9s-7.28,7.13-7.96,12.83c-3.45-3.04-4.46-7.21-4.32-11.5.42-12.27,9.6-21.73,21.83-23.31,12.5-1.62,24.22,5.06,29.72,16.51,8.31-10.35,19.23-13.53,27.94-24.15,6.93-8.46,9.68-19.17,1.34-25.85-2.94-2.35-6.98-2.76-9.87-.68-1.62,1.17-2.27,2.83-1.97,4.65.57,3.46,5.52,3.34,5.21,4.85-.97,4.78-5.63,7.63-10.47,6.94-5.23-.74-9.36-4.58-10.93-9.68-3.88-12.63,3.92-25.31,16.64-28.34,13.01-3.11,25.8,2.56,32.11,14.42,6.68,12.55,4.24,29.14-4.29,40.81-4.09,5.6-8.66,10.57-14.01,15.04-8.01,6.7-14.43,14.08-20.66,22.45-29.34,39.44-41,87.04-21.72,133.59l12.56,25.01-21-7.6c-18.19-6.88-33.97-17.91-42.64-35.61-4.95-10.1-7.37-26.74-.61-34.48,1.42-1.62,3.86-3.06,6.02-2.36,4.36,1.42,6.56,5.35,7.27,9.69,3.43,20.9,13.26,39.05,30.32,52.08l-5.34-9.53c-6.84-12.21-11.31-25.03-12.9-39.02Z"/>
  <path d="M401.13,243.12c9.82,34.26,4.39,65.59-14.53,95.6,10.01-6.86,17.06-16.02,22.1-26.45,3.81-8.29,6.65-16.33,8.14-25.39.75-4.56,3.74-9.49,8.71-9.92,8.66-.74,15.13,23.42-.8,45.2-6.11,8.35-13.78,15.04-22.75,20.26-7.38,4.3-15.24,6.9-23.2,9.83l-12.96,4.77c8.33-12.71,13.77-25.91,17.68-40.33,4.81-17.71,5.88-35.53,2.38-53.64-2.64-13.67-7.07-26.23-13.39-38.68-7.89-15.51-17.62-29.8-29.42-42.59-5.84-6.33-11.46-12.04-15.87-19.42-9.38-15.72-10.61-36.62,2.29-49.27,11.99-11.75,32.21-10.41,39.96,1.43,4.21,6.43,5.07,14.48,2.15,21.54-2.35,5.67-8.61,8.98-14.35,7.57-3.57-.87-6.8-3.96-5.8-7.46,1.28-.91,3.64-1.42,4.37-3,.83-1.81.39-3.47-.67-5.07-.88-1.34-2.63-2.31-4.69-2.21-4.68.22-8.4,3.27-9.94,7.64-1.38,3.93-1.56,7.91-.28,11.91,1.62,5.05,3.88,9.88,7.64,13.59l8.18,8.06,11.63,11.31c5.48-11.49,16.35-18.07,28.66-16.99,14.58,1.29,24.79,14.17,21.99,28.55-.49,2.5-1.72,4.98-4.22,6.35-.14-6.2-3.66-12.03-9.75-13.71-7.16-1.97-13.83,2.76-15.5,9.95-1.54,6.64-.61,13.5,1.67,20.08l10.59,30.48Z"/>
  <path d="M67.26,389.25c-7.02-5.4-20.02-8.77-27.48-2.8-4.17,3.34-5.84,8.87-3.17,13.61,2.41,4.27,8.18,4.92,12.15,1.99,2.07,4.37.24,8.65-3.16,11.63-4,3.51-9.7,5.02-15.22,4.25-8.97-1.25-16.33-6.99-19.94-15.3-6.51-14.97-.77-32.8,13.74-40.63,11.08-5.97,24.1-5.69,35.48-.7,7.25,3.18,13.67,7.16,19.19,12.73l14.5,14.62c11.95,12.05,24.33,22.76,38.32,33.03-6.38-.33-11.45-2.53-17.08-4.05-11.75-3.17-22.05-9-31.65-16.38l-15.66-12.03Z"/>
  <path d="M397.44,389.07c-5.77-7.77-15.23-7-23.99-3.01-6.36,2.9-11.54,7.16-17.03,11.49l-12.82,10.13c-8.09,5.11-16.78,8.37-26,10.9-4.6,1.26-8.75,3.56-13.87,3.44l12.92-10c9.59-7.42,17.69-16,26.28-24.55l14.02-13.96c11.9-11.86,31.95-19.63,48.51-13.9,15.05,5.2,23.54,19.26,21.24,34.88-.92,6.24-3.25,11.34-7.69,15.87-6.02,6.15-14.52,9.31-23.08,6.97-7.32-1.99-12.97-8.78-9.7-15.37,2.77,1.85,6.04,2.69,8.74,1.14,5.08-2.92,5.79-9.54,2.46-14.02Z"/>
  <path d="M117.74,466.81c-2.56,5.69-8.25,8.36-14.1,7.13-6.83-1.64-11.48-7.02-12.4-14.06-1.77-13.47,8.33-23.08,20.44-27.78l-8.3.09c-8.86.1-16.31,5.43-20.27,13.21-1.7,3.33-4.86,5.35-8.21,5.35-3.6,0-6.68-1.78-8.53-5.07-2.64-4.69-2.28-10.11.53-14.86,6.37-10.77,20.09-13.04,32.26-11.04,6.16,1.01,11.73,3.48,17.61,5.27l18.88,5.72c11,2.5,21.26,7.52,29.26,15.39,3.42,3.37,6.48,6.83,8.08,11.91l-14.5-5.94c-8.44-3.46-22.39-4.45-31.05-.54-5.96,2.76-10.34,8.24-9.69,15.21Z"/>
  <path d="M331.12,474.19c-5.78.69-10.63-1.94-12.58-7.19.62-6.53-3.16-11.82-8.96-15.02-8.98-4.08-18.87-3.83-28.47-1.05l-17.42,7.37c4.27-12.83,20.1-23.57,32.46-26.47l13.63-3.2,12.77-4.57c9.93-3.55,20.04-6.21,30.51-4.22,7.02,1.34,13.21,5.27,16.45,11.46,2.44,4.67,2.42,10.01-.05,14.38-1.98,3.5-5.33,5.15-9,5.08-3.98-.07-6.34-2.46-8.29-6.04-5.24-9.63-16.54-15.14-27.71-12.83l10.84,6.79c5.04,4.26,8.29,9.6,9.14,16.1,1.2,9.1-4.02,17.65-13.33,19.42Z"/>
  <path d="M251.16,262.15l-24.07-13.51c9.68-5.62,18.4-11.46,27.02-18.05,11.54-9.5,20.53-17.93,25.19-32.49,2.1-6.57,1.19-13-.08-20.06,8.85,4.67,15.59,14.76,17.27,23.72,3.66,19.44-8.58,35.7-23.9,46.71l-21.43,13.69Z"/>
  <path d="M219.38,501l-9.25-13.22c-3.1-4.43-4.24-9.16-3.59-14.96-7.47,1.63-14.6-2.07-17.52-9.26,8.07-1.13,15.88-7.42,19.94-14.32l10.16-17.26,9.16,15.27c4.72,7.87,11.62,13.99,20.77,16.35-2.57,6.81-9.64,11-16.63,9.14.61,3.92,0,7.55-1.78,11.01l-11.26,17.26Z"/>
  <path d="M218.96,218.32c-2.92-8.13-5.94-15.58-11.34-22.03-3.73-4.46-8.45-6.81-13.96-9.68,8.1-3.8,13.68-8.86,17.89-15.9l7.96-17.9c2.82,7.32,4.76,13.63,8.55,19.71,3.85,6.17,9.39,10.03,16.18,14.13-8.76,4.01-15.41,9.39-19.25,17.6l-6.03,14.05Z"/>
  <path d="M328.5,267.33c-8.92,4.94-11.98,9.24-15.56,18.3-1.3-1.11-1.86-2.74-2.5-4.21-2.74-6.24-6.97-10.49-13.78-14,12.72-5.93,14.74-18.35,15.59-18.86.37-.22.99.12,1.2.8,2.43,8.01,7.49,14.11,15.04,17.97Z"/>
  <path d="M138.27,267.32c-9.25,4.81-11.58,10.24-15.86,18.47-1.95-3.94-3.18-7.43-5.71-10.47-2.69-3.24-6.07-5.35-9.83-7.94,3.49-2.07,6.77-4.25,9.4-7.35l6.44-11.81c2.9,8.68,7.52,15.19,15.55,19.09Z"/>
  <path class="st0" d="M17.9,263.64c-2.54,4.39-7.11,6.06-11.41,4.69-4.35-1.38-6.75-5.76-6.07-10.58.48-3.37,2.4-6.16,5.17-7.46,3.06-1.44,6.55-1.16,9.3.96,3.69,2.85,5.45,8.18,3.01,12.39Z"/>
  <path d="M434.21,257.54c.83,4.82-1.81,8.91-5.75,10.53-4.4,1.81-9.01-.12-11.56-4.14-1.43-2.25-1.63-4.48-.99-7.04,1.13-4.54,4.75-7.6,9.24-7.49s8.23,3.29,9.06,8.15Z"/>
  <g>
    <path d="M259.17,136.51c-35.93-7.04-73.12-4.04-107.87,7.1-1.52.49-2.53-.42-2.91-1.7l-3.45-11.8c10.84-4.49,21.61-7.1,32.99-9.15,33.32-6,62.88-4.86,95.78,2.54,7.57,1.7,14.51,3.74,21.4,6.94l-4.81,13.98-31.14-7.91Z"/>
    <path d="M166.91,116.85c-8.56,1.91-15.89,4.1-23.61,7.18-1.52-2.43-2.23-4.57-3.01-7-3.98-12.38-8.45-24.26-14.43-35.81l-11.96-19.38c12.14,1.25,24.15,6.76,31.22,15.56-2.92,6.63-.18,13.04,5.96,16.11,5.24,2.62,11.11,1.78,14.96-2.96,3.49-4.3,6.38-12.35,2.66-14.69-3.15-1.98-4.96-5.26-4.32-9.01.47-2.76,2.98-6.67,6.56-6.96,5.47-.44,9.95,5.17,8.83,10.23l-2.14,5.35c2.54,6.41,8.41,11.7,15.61,12.35,4.46.4,8.37-2.09,11.52-4.9,4.85-5.06,7.71-11.62,7.69-18.72-2.22-5.89-6.3-10.43-11.35-13.97-1.04-.43-1.69-1.66-1.21-2.79l7.23-16.97L220,0l20.25,48.68c-6.79,5.26-14.55,11.88-12.75,19.99,2.38,10.72,11.39,21.49,21.16,18.88,6.04-1.62,11.91-6.6,13.69-12.59-.94-2.87-3.36-6.45-1.44-9.9,1.49-2.68,4.52-5.22,7.87-5.14s5.44,2.72,6.38,5.02c1.2,2.95,1.38,6.38-.94,8.49l-3.98,3.62c-1.32,7.59,3.26,16.42,11.56,17.78,6.15,1.01,12.6-3.81,14.12-9.52l.04-8.58c5.54-6,12.6-10.23,20.44-12.53,3.8-1.12,7.28-2.64,11.7-2.39-15.18,18.73-23.88,40.44-30.86,62.75-8.16-3.33-15.36-5.48-23.41-7.33-35.19-8.11-71.33-8.33-106.89-.38Z"/>
  </g>
</svg>