<?xml version="1.0" encoding="UTF-8"?>
<svg id="_평판" xmlns="http://www.w3.org/2000/svg" version="1.1" viewBox="0 0 453.47 500">
  <!-- Generator: Adobe Illustrator 30.5.1, SVG Export Plug-In . SVG Version: 2.1.4 Build 3)  -->
  <path d="M350.39,375.1l11.26-11.24c8.64-10.19,16.06-20.94,21.54-33.26,7.65-17.19,11.68-35.74,11.01-54.7-1.3-37.07-18.29-71.24-45.52-95.98-6.94-6.31-14.01-11.54-21.71-16.8-5.65-3.86-10.07-8.52-13.75-14.23-2.09-3.24-4.81-5.43-8.61-6.74-27.61-9.53-56.54-14.3-85.91-13.11-16.45.67-31.83,3.36-47.58,7.32l-24.63,7.52c-2.08.64-3.82,1.92-4.94,3.86-3.68,6.36-8.7,11.29-14.74,15.58-8.6,6.1-16.95,11.74-24.76,19-18.16,16.88-34.39,41.78-39.97,66.03-4.03,17.51-4.82,35.41-1.57,53.19,5.75,31.47,23.13,59.05,48.28,78.72,11.83,9.25,25.03,15.69,38.6,22l23.15,10.77c15.93,8.23,29.94,18.75,41.88,32.3-2.66,2.8-5.25,5.75-8.8,7.2-6.18,2.52-13.11,1.7-18.98-1.14l-9.87-4.77c-6.08-2.94-12.48-4.39-19.22-4.5-7.89-.12-14.41,3.6-18.79,10.09-.26.09-1.1,0-1.28-.23-4.51-5.86-3.95-14.17,1.23-19.66,6.16-6.53,16.26-7.78,25.49-6.19.92.52,1.28-.7.28-.8-7.28-3.71-14.51-5.96-22.11-8.52-12.03-4.05-23.96-7.19-36.71-8.26-11.89-.99-26.43,1.9-29.1,13.56-.98,4.27.71,8.5,4.51,10.18,7.45,3.3,10.92-4.02,11.98-3.26.28.2.8.58,1.02,1.2,3.07,8.51-2.24,17.28-10.97,19.49-8.4,2.12-16.75.37-23.57-5-6.32-4.97-10.15-12.85-10.22-21.48-.18-21.91,18.97-35.93,40.27-35.27.78.73,1.16-.5.16-.58l-15.31-12.19c-4.4-3.5-8.45-7.19-13.34-9.94-8.59-4.83-19.27-6.6-26.21.1-2.85,2.75-3.61,6.14-2.33,9.83,1.07,3.09,4.75,4.7,7.82,5.5-.04,4.52-5.09,7.8-9.5,8.16-10.52.88-19.11-7-20.35-17.52-1.69-14.42,7.95-27.41,22.08-30.94,6.97-1.74,13.97-1.27,20.94.24.29.44.79.34.81.14.11-1.02-16.47-24.44-18.07-59.03-.74-15.96,1.69-31.06,6.18-46.23,2.71-9.14,5.32-17.84,6.3-27.3.71-6.8-1.07-13.48-5.34-18.7-3.33-4.08-8.28-5.97-13.66-4.96-4.49.84-8.24,3.95-10.4,9.3-3.84-5.21-3.35-11.46-1.01-16.7,6.15-13.8,25.63-17.21,39.48-8.31,6.87,4.41,10.84,11.59,12.91,20.09l14.33-21.53c7.19-10.81,13.62-26.97,10.02-39.36-1.54-5.28-4.93-10.02-10.14-11.88-5.38-1.92-11.38.63-13.21,5.79-.64,1.8-.28,3.49.53,4.69,2.46,3.68,6.83.09,7.98,3.42,1.38,3.97-.05,8.01-3.22,10.66-2.95,2.47-6.55,3.74-10.47,3.14-8.82-1.34-14.86-8.04-16.12-16.71-1.55-10.64,2.58-20.96,11.9-26.78,5.41-3.38,12.02-5.23,18.57-4.67,16.7,1.42,29.82,13.71,33.52,29.96,2.45,10.76,1.07,21.64-3.06,31.92-1.01.66-.17,1.64.54.79l11.56-6.83c10.28-6.08,25.18-11.84,25.62-24.56.2-.9,1.83-1.59,2.82-1.95,48.62-17.47,101.86-18.44,150.97-2.34,3.48,1.14,6.47,2.24,9.53,4.07-.41,10.93,6.31,14.9,14.64,19.7l18.89,10.89.8.54c.14.1.27.37.87.37.38,0,.03-.88-.12-1.24-6.89-16.53-4.62-38.21,8.2-51.05,8.54-8.55,21.47-12.02,33.01-8.98,14.05,3.7,21.8,16.71,19.58,30.65-1.13,7.06-5.15,12.33-11.74,15.16-7,3.01-15.15.26-17.87-7.17-.9-2.46-.48-6.85,2.42-7.44,1.63-.33,3.45.84,4.8-.54,1.11-1.13,2.27-2.87,1.73-4.96-1.63-6.36-8.52-8.9-14.5-6.13-5.41,2.5-8.94,7.6-10.22,13.65-1.62,7.63-.01,15.24,2.71,22.61,2.71,7.36,6.91,13.72,11.13,20.32l9.97,15.61c4.3-13.84,11.96-22.34,26.66-24.54,6.05-.9,11.71.34,17.07,3.06,9.48,4.8,14.01,16.25,8.96,25.74-1.11,2.09-2.97-5.6-9.22-7.95s-13.15.43-16.79,5.92c-3.9,5.89-5.26,12.59-4.25,19.72l5.49,23.73c4.15,14.47,6.82,28.6,6.51,43.84-.45,21.82-6.85,42.75-17.94,61.58-1.15.66-.16,1.65.67.89l12.32-1.4c9.88-.15,19.22,3.69,25.4,11.35,4.53,5.62,5.88,12.42,5.49,19.61-.57,10.47-9.13,19.14-19.66,18.5-8.92-.54-11.67-8.55-10.02-8.65,3.56-.21,6.28-1.81,7.51-4.53,1.53-3.39.86-6.8-1.69-9.62-8.37-9.27-23.16-4.25-33.32,3.69l-23.46,18.35c11.71-.53,23.07,3.13,31.8,11.17,9.78,9,13.25,23.09,7.64,35.35-3.95,8.62-12.4,14.66-21.73,16.01-6.44.93-12.86-1.04-17.33-5.33s-5.67-10.7-2.97-15.74l.89-.86c1.37-1.33,2.54,4.65,8.45,4.35,2.95-.15,5.56-1.47,6.99-4.29,2.04-4.03,1.43-8.36-1.31-11.9-11.76-15.25-44.74-5.96-62.61-.16-7.81,2.54-15.25,4.75-22.65,8.5-1.03.52-1.85.49-1.75.78.52,1.48,10.83-2.73,21.56,2.01,9.47,4.19,13,15.52,7.22,23.92-1.56,2.26-4.2-5.06-11.64-7.83-12.72-4.73-25.34.85-37.04,7.12-9.87,5.29-19.42,3.35-26.38-5.89,11.59-13.85,25.53-24.84,41.53-33.13l28.7-13.38c13.3-6.2,25.42-13.78,36.65-23.64Z"/>
  <path d="M168.77,351.62c5.78-1.58,10.6-4.88,12.68-10.29,3.15-8.23,1.47-17.13-3.53-24.22l-7.67-9.33-24.71-26.14c-.67-1.1,1.18-3.25,1.89-3.99l25.89-27.04c9.34-9.76,14.04-25.28,5.09-34.77-2.71-2.88-6.12-4.41-9.83-6.21,7.45-5.63,16.36-6.24,24.91-3.53s14.86,9.53,17.45,17.99c3.22,10.52.94,21.27-5.24,30.16-4.2,6.04-8.91,11.09-13.96,16.35-2.94,3.07-5.52,6.24-7.61,10.03,1,3.01,2.78,5.54,4.98,7.86,6.22,6.55,12.32,12.9,17.31,20.47,8.66,13.1,8.56,31.29-3.91,42.21-6.74,5.9-15.57,7.76-24.6,6-3.51-.68-6.64-2.77-9.15-5.55Z"/>
  <path d="M284.72,351.65c-6.75,6.45-15.03,7.38-23.81,4.95s-15.63-8.94-18.44-17.75c-3.35-10.52-.99-21.42,5.19-30.48l14.99-18.24c2.51-3.06,5.23-5.75,6.7-9.44-1.98-3.32-4.46-6.02-6.94-8.92l-13.94-16.33c-4.22-6.04-6.9-12.5-7.47-19.82-1.36-17.52,12.51-31.92,30.19-31.05,4.91.24,9.51,1.91,13.6,5.28-11.4,3.14-17.18,14.4-13.9,25.54,2.08,7.05,6.3,12.39,11.43,17.76l24.17,25.3c.69.72,1.82,2.57,1,3.43l-26.29,27.89c-5.14,5.45-9.03,11.18-10.71,18.5-1.51,6.59.23,13.55,4.89,18.52,2.45,2.6,5.44,3.38,9.34,4.88Z"/>
  <path d="M317.65,376.38c-10.45,5.23-16.38,4.85-12.81,2.36,29.94-20.93,48.73-51.58,52.82-88.15,1.79-16.03-.58-31.35-5.36-46.81-7.16-23.19-21.54-43.43-40.8-58.18l-7.8-5.09c1.46-.86,3.14-.93,4.68-.56,6.35,1.53,12.2,3.85,17.82,7.24,8.51,5.14,16.24,11.02,22.85,18.51,27.57,31.18,35.93,72.86,21.24,112.13-9.52,25.45-28.34,46.38-52.64,58.55Z"/>
  <path d="M135.66,370.01c4.3,3.71,9.07,6.15,12.24,10.96-13.91-3.29-25.33-10.68-35.49-19.45-11.61-10.01-20.25-21.76-26.93-35.53-24.25-49.95-6.29-112.02,42.2-139.59,5.66-3.22,11.11-5.11,17.33-6.74,1.05-.28,3.05-.9,3.16.59l-9.84,7.38-12.65,11.35c-18.63,19.69-29.7,45.25-31.68,72.39-1.57,21.58,3.31,42.57,12.88,61.79,7.12,14.29,16.56,26.3,28.78,36.85Z"/>
  <path d="M310.99,346.7c-3.43,2.95-6.36,5.44-11.06,6.03l13.33-23.72c14.36-29.85,15.1-63.63,1.72-93.95-3.87-8.77-8.18-16.8-14.09-24.42-.43-.55-.47-1.4-.23-1.74,1.69-2.39,9.51,3.73,13.68,7.67,20.17,19.05,30.27,46.98,26.42,74.58-3.02,21.63-13.14,41.26-29.77,55.55Z"/>
  <path d="M144.98,341.45l6.49,10.78c-1.3.82-3.14.3-4.58-.73-42.71-30.66-49.56-92.91-12.84-131.37,4.18-4.38,12.8-11.91,16.28-11.53.4.04,1.22.82.91,1.28-4.65,7.02-9.42,13.65-12.96,21.35-17.07,37.06-14.41,75.13,6.7,110.21Z"/>
  <path d="M439.4,319.11c-6.05,6.86-16.94,14.6-26.14,12.62,9.89-13.62,17.89-33.26,20.55-49.6,2.85-17.5,1.45-34.8-3.11-51.84-.5-1.89-.31-3.91,1.51-4.77,15.61,15.76,22.77,37.24,21,59.1-1.05,12.93-5.32,24.85-13.81,34.49Z"/>
  <path d="M30.02,330.36c-9.92-3.81-17.16-10.97-22.25-20C1.94,300.03-.19,288.7.01,276.83c.25-14.07,3.92-27.37,11.66-39.11,2.78-4.22,5.51-8.38,9.77-11.32,1.29-.07,1.68,2.33,1.28,3.64-5.99,19.97-6.4,40.56-1.24,60.77,3.78,14.81,9.57,28.48,18.74,40.85-3.63.78-6.76.03-10.22-1.3Z"/>
  <path d="M228.74,500l-8.64-13.57c-2.81-4.41-4.13-9.05-2.48-14.21-7.24,2.63-14.15-1.46-16.8-7.96,7.87-1.34,13.82-5.42,18.51-11.2l9.18-13.59,6.67,10.34c4.66,7.23,11.54,12.37,20.44,14.35-2.3,6.44-8.97,10.08-15.72,8.16,1.41,5.3.26,9.51-2.22,13.65l-8.93,14.02Z"/>
  <path d="M228.05,423.08l-6.35-14c-3.75-8.27-10.57-14.3-19.21-18.21,10.11-5.38,16.45-10.2,20.97-20.43l4.96-11.25,4.1,10.53c3.86,9.91,11.11,16.79,21.61,21.09-9.34,4.4-16.32,10.69-20.36,19.62l-5.72,12.65Z"/>
  <path d="M235.6,190.92l-7.93,16c-5.75-14.57-10.35-24.48-25.14-30.78,15.17-6.23,19.76-15.65,25.41-30.78,5.8,13.65,7.95,21.84,21.27,28.91,1.17.62,2.28,1.02,3.41,2.38-7.12,2.83-12.82,7.79-17.03,14.27Z"/>
  <path d="M227.54,312.65l-6.93-13.69c-3.14-6.21-6.87-11.84-12.08-16.52-.49-.44-.84-1.15-.81-1.59.13-1.94,11.53-10.5,17.51-28.01.53-1.57,1.21-2.98,2.44-4.47l6,14.82c3.77,9.32,13.85,16.8,12.3,18.4-8.54,8.79-14.2,18.98-18.42,31.06Z"/>
  <path d="M145.85,119.57c-1.45-1.9-2.02-3.9-2.74-6.03-6.29-18.71-13.45-36.8-22.43-54.37l-7.2-12.83c7.11.16,13.26,3.1,19.2,6.6,5.46,3.21,9.2,8.28,9.74,14.75,5.25.55,10.15,2.21,9.08,6.06-1.24,4.46.57,7.94,4.04,10.56,6.34,4.8,14.84,3.8,19.22-3.07,2.75-4.32,4.12-9.36,3.1-14.54-4.71-2.49-6.52-6.05-5.25-10.98.61-2.35,2.56-5.52,5.84-6.18,3.97-.8,7.63,1.56,9.19,4.78,1.66,3.42,1.16,7.4-1.58,10.7,1.44,7.84,7.83,14.15,16.19,14.81,10.95-.32,18.96-12.21,19.55-22.38.67-11.59-11.87-16.02-13.42-18.4s-.02-5.94,2.19-7.6c2.35-1.77,5.06-2.05,7.97-1.91-2.39-8.43,2.32-15.71,6.41-22.76l3.93-6.76c5.56,8.67,13.41,19.38,10.54,29.55,3.13-.32,5.82-.2,8.04,1.67,1.61,1.36,3.33,4.23,2.48,6.8-1.4,4.22-12.57,7.16-13.68,17.16-1.13,10.22,7.74,24.36,17.91,24.55,7.48.14,13.39-4.81,16.45-11.1,1.14-2.34,1.35-3.67-.04-6-1.71-2.87-1.39-6.75.54-9.45,1.77-2.48,4.94-4.37,8.41-3.47,3.82.98,5.83,4.68,6.09,7.98.34,4.23-2.6,6.38-5.04,9.32-3.22,3.88.78,19.06,11.63,20.21,6.31.67,12.77-3.82,14.22-9.89.42-1.75-1.05-4.09-.15-5.69,1.71-3.04,5.11-3.96,8.59-4.4,1.33-6.01,4.21-11.18,9.56-14.29,5.81-3.38,12.04-6.3,18.82-6.45-7.5,12.52-13.07,24.44-18.33,37.22l-12.89,35.9c-41.19-16.38-86.49-19.11-129.42-10.82-12.68,2.45-24.4,5.72-36.75,10.75Z"/>
</svg>